<?xml version="1.0" encoding="utf-8"?>
<!-- Generator: Adobe Illustrator 16.0.0, SVG Export Plug-In . SVG Version: 6.00 Build 0)  -->
<!DOCTYPE svg PUBLIC "-//W3C//DTD SVG 1.1//EN" "http://www.w3.org/Graphics/SVG/1.1/DTD/svg11.dtd">
<svg version="1.1" id="Layer_1" xmlns="http://www.w3.org/2000/svg" xmlns:xlink="http://www.w3.org/1999/xlink" x="0px" y="0px"
	 width="120px" height="120.176px" viewBox="0 0 120 120.176" enable-background="new 0 0 120 120.176" xml:space="preserve">
<path fill="#2A2421" d="M60.086,0C26.412,0,0,26.77,0,60.265c0,33.148,26.412,59.911,60.086,59.911
	c33.148,0,59.914-26.763,59.914-59.911C120,26.77,93.234,0,60.086,0z M60.086,103.868c-14.075,0-26.636-6.718-34.656-17.068h3.559
	h62.023h3.454C86.522,97.15,74.063,103.868,60.086,103.868z M45.296,72.205c2.688-5.401,8.27-9.122,14.701-9.122
	s12.016,3.721,14.707,9.122H45.296z M101.5,73.346v-1.141H90.106c-3.295-13.581-15.525-23.71-30.109-23.71
	c-14.581,0-26.815,10.129-30.104,23.71H18.497v1.61c-1.414-4.274-2.189-8.826-2.189-13.551c0-24.103,19.673-43.957,43.778-43.957
	c23.931,0,43.428,19.854,43.428,43.957C103.514,64.815,102.806,69.208,101.5,73.346z"/>
</svg>
