<?xml version="1.0" encoding="utf-8"?>
<!-- Generator: Adobe Illustrator 16.0.0, SVG Export Plug-In . SVG Version: 6.00 Build 0)  -->
<!DOCTYPE svg PUBLIC "-//W3C//DTD SVG 1.1//EN" "http://www.w3.org/Graphics/SVG/1.1/DTD/svg11.dtd">
<svg version="1.1" id="Layer_1" xmlns="http://www.w3.org/2000/svg" xmlns:xlink="http://www.w3.org/1999/xlink" x="0px" y="0px"
	 width="651.828px" height="120px" viewBox="0 0 651.828 120" enable-background="new 0 0 651.828 120" xml:space="preserve">
<g>
	<path fill="#2A2421" d="M189.077,0l-15.928,15.22c-10.089,9.562-20.71,19.115-30.268,28.498V0h-16.991v120h16.991V76.285
		L189.077,120h24.424c-19.997-19.115-43.539-40.882-63.54-59.823L213.501,0H189.077z"/>
	<polygon fill="#2A2421" points="221.042,0 221.042,16.639 251.664,16.639 218.567,120 272.193,120 272.193,103.188 
		241.753,103.188 274.677,0 	"/>
	<rect x="283.792" fill="#2A2421" width="16.987" height="120"/>
	<path fill="#2A2421" d="M375.51,7.435C363.475,0.535,349.49,0,348.961,0h-32.564v120h32.564c0.529,0,14.338-0.884,26.549-7.257
		c21.236-12.744,26.549-35.749,26.549-52.566C402.059,43.541,396.042,20.357,375.51,7.435z M367.545,97.701
		c-9.204,5.487-18.408,5.487-18.584,5.487h-15.752v-86.55h15.752c0.176,0,9.026,0,18.227,5.664
		c12.217,6.903,18.059,19.646,18.059,37.874C385.246,77.878,379.583,90.796,367.545,97.701z"/>
	<polygon fill="#2A2421" points="414.42,120 478.488,120 478.488,103.188 431.235,103.188 431.235,68.499 478.488,68.499 
		478.488,51.508 431.235,51.508 431.235,16.639 478.488,16.639 478.488,0 414.42,0 	"/>
	<polygon fill="#2A2421" points="587.228,0 587.228,16.639 611.117,16.639 611.117,120 627.76,120 627.76,16.639 651.828,16.639 
		651.828,0 	"/>
	<polygon fill="#2A2421" points="564.036,88.702 505.098,1.219 491.646,1.219 491.646,120 508.461,120 508.461,33.3 
		567.258,119.004 580.488,119.004 580.488,1.531 564.036,1.531 	"/>
	<path fill="#2A2421" d="M59.999,0C26.374,0,0,26.729,0,60.177C0,93.276,26.374,120,59.999,120c33.1,0,59.826-26.724,59.826-59.823
		C119.825,26.729,93.099,0,59.999,0z M59.999,103.716c-14.056,0-26.598-6.707-34.606-17.043h3.555h61.932h3.449
		C86.396,97.009,73.955,103.716,59.999,103.716z M45.23,72.1c2.684-5.394,8.258-9.108,14.68-9.108s11.998,3.715,14.686,9.108H45.23z
		 M101.353,73.239V72.1H89.975C86.686,58.538,74.473,48.424,59.91,48.424c-14.56,0-26.776,10.114-30.06,23.676H18.47v1.608
		c-1.411-4.269-2.186-8.813-2.186-13.531c0-24.067,19.644-43.893,43.715-43.893c23.896,0,43.364,19.825,43.364,43.893
		C103.363,64.721,102.656,69.107,101.353,73.239z"/>
</g>
</svg>
