<?xml version="1.0" encoding="utf-8"?>
<!-- Generator: Adobe Illustrator 16.0.0, SVG Export Plug-In . SVG Version: 6.00 Build 0)  -->
<!DOCTYPE svg PUBLIC "-//W3C//DTD SVG 1.1//EN" "http://www.w3.org/Graphics/SVG/1.1/DTD/svg11.dtd">
<svg version="1.1" id="Layer_1" xmlns="http://www.w3.org/2000/svg" xmlns:xlink="http://www.w3.org/1999/xlink" x="0px" y="0px"
	 width="68.968px" height="120.002px" viewBox="0 0 68.968 120.002" enable-background="new 0 0 68.968 120.002"
	 xml:space="preserve">
<g>
	<g>
		<defs>
			<rect id="SVGID_5_" width="68.968" height="120.002"/>
		</defs>
		<clipPath id="SVGID_2_">
			<use xlink:href="#SVGID_5_"  overflow="visible"/>
		</clipPath>
		<path clip-path="url(#SVGID_2_)" fill="#FFFFFF" d="M47.29,120.002c-25.468,0-35.147-18.785-35.147-32.056v-39.21H0V33.235
			c18.202-6.562,22.582-22.979,23.609-32.338C23.681,0.255,24.186,0,24.473,0h17.58v30.57h24.009v18.166H41.965v37.355
			c0.079,4.993,1.875,11.84,11.038,11.84c0.167,0,0.338-0.003,0.511-0.009c3.183-0.083,7.451-1.007,9.683-2.07l5.771,17.116
			c-2.167,3.182-11.96,6.872-20.779,7.025C47.886,120,47.59,120.002,47.29,120.002"/>
	</g>
</g>
</svg>
