<?xml version="1.0" encoding="utf-8"?>
<!-- Generator: Adobe Illustrator 18.1.0, SVG Export Plug-In . SVG Version: 6.00 Build 0)  -->
<!DOCTYPE svg PUBLIC "-//W3C//DTD SVG 1.1//EN" "http://www.w3.org/Graphics/SVG/1.1/DTD/svg11.dtd">
<svg version="1.1" id="Layer_1" xmlns="http://www.w3.org/2000/svg" xmlns:xlink="http://www.w3.org/1999/xlink" x="0px" y="0px"
	 viewBox="0 0 226.8 226.8" enable-background="new 0 0 226.8 226.8" xml:space="preserve">
<g>
	<g>
		<g>
			<g>
				<path d="M38.9,185c1.7-0.5,2.1-0.9,1.9-1.6c-1-4.3-1.5-6.4-2.5-10.6c-0.2-0.7-0.7-0.9-2.5-0.6c0-0.2-0.1-0.3-0.1-0.5
					c4.9-1.2,7.3-1.7,12.2-2.7c0.4,1.8,0.6,2.7,1,4.4c-0.2,0.1-0.3,0.1-0.6,0.1c-1.6-2.5-2.8-3.5-5.4-2.9c-0.9,0.2-1.4,0.3-2.3,0.5
					c0.5,2.4,0.8,3.6,1.3,6c0.4-0.1,0.7-0.1,1.1-0.2c1.6-0.4,2.2-0.9,2.4-3.1c0.2,0,0.3-0.1,0.5-0.1c0.5,2.2,0.7,3.4,1.2,5.6
					c-0.2,0-0.3,0.1-0.5,0.1c-1-2-1.8-2.2-3.4-1.9c-0.4,0.1-0.7,0.1-1.1,0.2c0.5,2,0.7,3,1.1,5.1c0.2,0.8,0.6,1,2.5,0.6
					c0,0.2,0.1,0.3,0.1,0.5c-2.7,0.6-4.1,0.9-6.9,1.6C39,185.3,39,185.2,38.9,185z"/>
				<path d="M51.8,182.3c1.2-0.3,1.5-0.5,1.4-1.1c-0.5-2.7-0.8-4-1.3-6.7c-0.1-0.6-0.5-1-1.8-0.7c0-0.2-0.1-0.3-0.1-0.5
					c1.5-0.4,2.3-0.5,3.8-0.9c0.6,3.3,0.9,5,1.5,8.3c0.1,0.6,0.4,0.7,1.7,0.5c0,0.2,0.1,0.3,0.1,0.5c-2.1,0.4-3.1,0.6-5.2,1
					C51.9,182.5,51.9,182.4,51.8,182.3z M50.6,169.7c-0.2-0.8,0.3-1.5,1.2-1.7c0.9-0.2,1.5,0.3,1.7,1.1c0.2,0.8-0.3,1.5-1.2,1.7
					C51.5,170.9,50.8,170.5,50.6,169.7z"/>
				<path d="M57.7,181.1c1.2-0.2,1.5-0.5,1.4-1c-0.5-2.7-0.7-4-1.2-6.7c-0.1-0.6-0.5-1-1.7-0.8c0-0.2-0.1-0.3-0.1-0.5
					c1.5-0.3,2.3-0.5,3.8-0.8c0.1,0.7,0.2,1.1,0.3,1.9c0.8-1.3,2-2.3,3.5-2.5c1.7-0.3,2.7,0.6,3,2.5c0.3,2.2,0.5,3.3,0.8,5.5
					c0.1,0.6,0.4,0.7,1.6,0.6c0,0.2,0,0.3,0.1,0.5c-2,0.3-3,0.4-5,0.7c0-0.2,0-0.3-0.1-0.5c1-0.2,1.2-0.4,1.1-1c-0.3-2-0.5-3-0.8-5
					c-0.2-1.6-0.9-2.1-2.1-1.9c-0.9,0.1-1.6,0.8-2.1,1.6c0.4,2.4,0.6,3.5,1,5.9c0.1,0.6,0.4,0.7,1.3,0.6c0,0.2,0,0.3,0.1,0.5
					c-2,0.3-3,0.5-4.9,0.8C57.8,181.4,57.8,181.3,57.7,181.1z"/>
				<path d="M68.7,175.1c-0.4-3,1.4-5.4,4.1-5.7c2.9-0.4,4.6,1.6,4.7,4.1c-2.6,0.3-3.9,0.5-6.5,0.8c0,0.1,0,0.2,0,0.3c0,0,0,0,0,0
					c0.3,2.4,1.6,3.9,3.7,3.6c1.2-0.2,2-0.9,2.8-2.1c0.2,0.1,0.2,0.2,0.4,0.3c-0.7,1.5-1.7,2.7-3.9,3
					C71.2,179.7,69.1,178,68.7,175.1z M71,173.8c1.7-0.2,2.5-0.3,4.1-0.6c0-2.1-0.8-3.4-2.3-3.2C71.5,170.1,70.9,171.4,71,173.8z"/>
				<path d="M82.1,171.2c-0.4-4.5,2.9-7.8,7.1-8.1c1.6-0.1,2.9,0.2,3.9,0.5c0.3-0.4,0.4-0.5,0.7-0.9c0.2,0,0.3,0,0.5,0
					c0.1,1.8,0.2,2.7,0.3,4.6c-0.2,0-0.3,0-0.5,0c-1.2-2.5-2.9-3.7-5-3.6c-2.4,0.2-4.5,2.3-4.1,7.2c0.4,4.8,2.9,6.6,5.3,6.4
					c1.2-0.1,2.1-0.4,2.7-0.9c-0.1-1.6-0.2-2.4-0.3-3.9c0-0.8-0.6-1.1-2.4-1c0-0.2,0-0.3,0-0.5c2.6-0.2,3.8-0.3,6.4-0.4
					c0,0.2,0,0.3,0,0.5c-1.3,0.1-1.5,0.4-1.5,1.3c0.1,1.6,0.1,2.4,0.2,4c-1.3,0.9-3.3,1.5-5.1,1.6C86.3,178.2,82.6,176,82.1,171.2z"
					/>
				<path d="M97.5,172.3c-0.1-3,1.9-5.1,4.8-5.2c3-0.1,5.1,1.8,5.2,4.8c0.1,3-2,5.1-4.8,5.2C99.7,177.2,97.7,175.3,97.5,172.3z
					 M105,172c-0.1-3.1-1.1-4.4-2.8-4.3c-1.6,0.1-2.4,1.4-2.3,4.5c0.1,3.1,1.1,4.4,2.8,4.4C104.4,176.4,105.1,175.1,105,172z"/>
				<path d="M108.5,171.9c0-3,2.1-5.1,5-5.1c3,0,5,2,5,5c0,3-2.2,5-5,5C110.5,176.9,108.5,174.9,108.5,171.9z M116,171.9
					c0-3.1-0.9-4.4-2.6-4.4c-1.6,0-2.4,1.4-2.4,4.4c0,3.1,1,4.4,2.6,4.4C115.2,176.3,116,175,116,171.9z"/>
				<path d="M119.4,172.1c0.1-2.9,2-5.1,5.1-5c1,0,1.6,0.3,2.2,0.6c0.1-1.5,0.1-2.3,0.2-3.8c0-0.7-0.2-1-1.7-1.1c0-0.2,0-0.3,0-0.5
					c1.6,0,2.4,0,4.1,0c-0.3,5.4-0.4,8.1-0.6,13.5c0,0.5,0.3,0.8,1.5,0.9c0,0.2,0,0.3,0,0.5c-1.5,0-2.2-0.1-3.7-0.1
					c0-0.5,0-0.7,0-1.2c-0.8,0.7-1.7,1.2-2.9,1.1C120.9,177,119.4,174.8,119.4,172.1z M126.4,175.3c0.1-2.6,0.2-3.9,0.3-6.5
					c-0.5-0.7-1-1.1-2-1.2c-1.5-0.1-2.7,1.5-2.7,4.3c-0.1,2.3,0.9,4,2.7,4C125.3,176,125.9,175.8,126.4,175.3z"/>
				<path d="M131,174c0.2,0,0.3,0,0.5,0c1,2,2,2.9,3.3,3c1.2,0.1,1.8-0.6,1.8-1.4c0.1-1-0.5-1.5-2.5-2.2c-2.2-0.8-3-1.5-2.9-3
					c0.1-1.8,1.7-3.1,3.9-2.9c0.9,0.1,1.7,0.4,2.2,0.8c0.2-0.2,0.3-0.3,0.5-0.6c0.2,0,0.3,0,0.5,0c-0.1,1.2-0.1,1.8-0.2,3
					c-0.2,0-0.3,0-0.5,0c-0.9-1.7-1.6-2.6-2.8-2.6c-1-0.1-1.7,0.5-1.8,1.4c-0.1,0.9,0.7,1.3,2.3,1.9c2.1,0.7,3.1,1.6,3,3.1
					c-0.1,1.8-1.5,3.1-3.8,3c-0.8-0.1-2-0.5-2.6-0.9c-0.3,0.3-0.4,0.4-0.7,0.7c-0.2,0-0.3,0-0.4,0C130.9,176,131,175.3,131,174z"/>
				<path d="M143.4,173.6c0.2,0,0.3,0,0.6,0.1c1,2.7,2.2,4.5,4.3,4.7c2,0.2,3.1-1,3.2-2.2c0.2-1.7-0.9-2.5-3.4-3.6
					c-2-0.9-4.1-1.8-3.9-4.5c0.2-2.7,2.6-4.2,5.5-3.9c1.3,0.1,2.3,0.6,3,1c0.3-0.3,0.5-0.4,0.8-0.6c0.2,0,0.3,0,0.5,0.1
					c-0.2,1.8-0.3,2.6-0.5,4.4c-0.2,0-0.4,0-0.6-0.1c-0.7-2.5-1.9-3.9-3.6-4.1c-1.5-0.2-2.8,0.6-2.9,2.2c-0.2,1.6,1.1,2.3,3.4,3.3
					c1.9,0.9,4,1.9,3.7,4.5c-0.3,2.3-1.9,4.5-5.5,4.1c-1.2-0.1-2.5-0.6-3.3-1.1c-0.5,0.3-0.7,0.5-1.2,0.8c-0.2,0-0.3,0-0.5,0
					C143.1,176.5,143.2,175.5,143.4,173.6z"/>
				<path d="M155.3,176.8c0.3-2.4,0.5-3.7,0.8-6.1c-0.8-0.1-1.2-0.1-1.9-0.2c0-0.2,0-0.3,0.1-0.5c0.8-0.1,1.2-0.1,2-0.2
					c0.1-1.1,0.2-1.6,0.3-2.6c0.9-0.2,1.4-0.3,2.4-0.5c-0.2,1.4-0.3,2.1-0.5,3.5c1.2,0.2,1.9,0.3,3.1,0.4c0,0.3-0.1,0.5-0.1,0.8
					c-1.2-0.2-1.9-0.3-3.1-0.4c-0.3,2.5-0.5,3.7-0.8,6.1c-0.2,1.2,0.2,1.7,1,1.9c0.6,0.1,1.2-0.3,1.9-1c0.1,0.1,0.2,0.2,0.4,0.3
					c-0.9,1.3-1.9,1.9-3.3,1.7C155.9,179.7,155.1,178.8,155.3,176.8z"/>
				<path d="M161.5,175.5c0.4-3,2.9-4.7,5.8-4.2c3,0.5,4.7,2.8,4.1,5.7c-0.5,3-3,4.6-5.8,4.1C162.7,180.7,161.1,178.4,161.5,175.5z
					 M169,176.6c0.5-3-0.2-4.5-1.9-4.8c-1.6-0.3-2.6,0.9-3.1,4c-0.5,3.1,0.3,4.5,1.8,4.8C167.4,180.9,168.4,179.7,169,176.6z"/>
				<path d="M171,181.4c1.2,0.2,1.5,0.1,1.7-0.5c0.5-2.7,0.8-4,1.3-6.7c0.1-0.6-0.1-1.1-1.4-1.3c0-0.2,0.1-0.3,0.1-0.5
					c1.5,0.2,2.3,0.3,3.8,0.6c-0.1,0.7-0.2,1.1-0.4,1.9c1-1,2.1-1.6,3.3-1.3c1.2,0.2,1.6,1.1,1.4,1.9c-0.2,0.8-0.8,1.2-1.6,1.1
					c-0.8-0.2-1.2-0.8-1.1-1.5c0-0.1,0.1-0.3,0.2-0.5c-0.8-0.1-1.6,0.3-2.3,1c-0.5,2.3-0.7,3.5-1.1,5.8c-0.1,0.6,0.2,0.8,1.6,1.1
					c0,0.2-0.1,0.3-0.1,0.5c-2.2-0.4-3.3-0.7-5.5-1.1C171,181.7,171,181.6,171,181.4z"/>
				<path d="M180.4,178.9c0.6-2.9,3.1-4.6,5.9-4c2.9,0.7,3.8,3.1,3.1,5.5c-2.6-0.6-3.9-0.9-6.4-1.5c0,0.1,0,0.2-0.1,0.3c0,0,0,0,0,0
					c-0.5,2.3,0.2,4.2,2.3,4.6c1.2,0.3,2.2-0.2,3.3-1c0.1,0.1,0.2,0.2,0.3,0.4c-1.2,1.1-2.6,1.9-4.6,1.5
					C181.1,184.1,179.8,181.8,180.4,178.9z M183,178.5c1.6,0.3,2.5,0.5,4.1,0.9c0.7-2,0.4-3.5-1.1-3.9
					C184.7,175.2,183.7,176.2,183,178.5z"/>
			</g>
		</g>
		<polygon points="170.9,113.9 163.6,110 161.4,108.8 156.7,106.2 154.7,105.2 151.2,103.2 149.4,102.3 148.9,102 147.2,101.1 
			147.2,101.1 146.9,100.9 145.3,100.1 143.4,99 140.9,99.8 132.1,102.5 132.3,103 132.5,103.5 132.9,104.7 133.1,105.2 
			133.5,106.4 133.8,107 134.2,108.2 134.4,108.8 134.6,109.2 134.2,108.8 133.6,108.3 132.5,107.1 132,106.7 130.9,105.6 
			130.6,105.3 129.5,104.3 129.3,104.1 128.3,103.1 128.1,102.9 127.2,102 127,101.9 126.1,101 126,100.9 125.1,100 125,99.9 
			124.1,99 124,99 123.1,98.1 123,98 122.1,97.2 122.1,97.1 121.2,96.2 121,96.1 120.1,95.2 120,95.1 119.1,94.2 118.9,94 
			117.9,93.1 117.7,92.9 116.7,91.9 116.4,91.5 115.3,90.5 114.9,90.1 113.8,89 113.2,88.5 112,87.3 111.7,87 111.3,87.4 
			110.2,88.5 109.6,89.1 108.5,90.1 108.1,90.5 107.1,91.5 106.8,91.8 105.8,92.7 105.6,93 104.6,93.9 104.4,94.1 103.5,95 
			103.3,95.2 102.4,96 102.2,96.2 101.3,97.1 101.2,97.2 100.3,98.1 100.1,98.3 99.2,99.1 99,99.3 98.2,100.2 97.9,100.4 97,101.3 
			96.8,101.5 95.8,102.4 95.5,102.7 94.5,103.7 94.2,104 93.2,105 92.7,105.5 91.6,106.5 91,107.1 89.9,108.2 89,109 88.8,109.2 
			88.9,109 89.2,108.1 89.7,106.9 89.9,106.2 90.4,105.1 90.6,104.3 91.1,103.2 91.3,102.5 80,99 78.6,99.8 78.1,100.1 78.1,100.1 
			77.1,100.7 76.4,101.1 74.3,102.3 72.7,103.2 69.3,105.2 67.4,106.3 62.5,109.1 60.3,110.3 53.6,114.2 53.6,114.2 67.1,114.2 
			67.1,114.2 78.8,114.2 80.5,114.2 80.5,114.2 83.2,114.2 90.1,114.2 93,114.2 97.6,114.2 97.6,114.2 98.2,114.2 101.2,114.2 
			101.2,114.2 101.7,114.2 103.4,114.2 104.1,114.2 104.1,114.2 104.9,114.2 104.9,114.2 105.8,114.2 106.2,114.2 107,114.2 
			107.1,114.2 107.9,114.2 108.1,114.2 108.6,114.2 108.6,114.2 108.8,114.2 109.3,114.2 109.5,114.2 109.8,114.2 110.1,114.2 
			110.3,114.2 110.7,114.2 110.8,114.2 111.1,114.2 111.2,114.2 111.6,114.2 111.6,114.2 112,114.2 112,114.2 112.4,114.2 
			112.4,114.2 112.4,114.2 112.8,114.2 112.9,114.2 113.3,114.2 113.3,114.2 113.7,114.2 113.7,114.2 114.1,114.2 114.2,114.2 
			114.2,114.2 114.5,114.2 114.6,114.2 115,114.2 115.2,114.2 115.5,114.2 115.8,114.2 116.1,114.2 116.5,114.2 116.7,114.2 
			117.3,114.2 117.4,114.2 118.2,114.2 118.3,114.2 119.2,114.2 119.6,114.2 120.4,114.2 121.3,114.2 122,114.2 123.8,114.2 
			124.2,114.2 127.4,114.2 127.4,114.2 127.8,114.2 127.8,114.2 132.6,114.2 136.1,114.2 136.1,114.2 143.2,114.2 143.2,114.2 
			144.7,114.2 144.8,114.2 146.5,114.2 160,114.2 160,114.2 171.5,114.2 		"/>
		<path d="M177.2,109.9c0-0.4,0-0.8,0-1.2l-13.2,0l2.2,1.2L177.2,109.9C177.2,109.9,177.2,109.9,177.2,109.9z"/>
		<path d="M48.1,109.2c0,0.4,0,0.8,0,1.2l9.8,0l2.1-1.2L48.1,109.2C48.1,109.1,48.1,109.2,48.1,109.2z"/>
		<path d="M151.4,101.9l1.7,0.9l23.2-4.2c-0.1-0.4-0.1-0.8-0.2-1.2L151.4,101.9z"/>
		<path d="M148.4,95.7c0.1,0.4,0.1,0.8,0.2,1.2l24.9-9.1c-0.1-0.4-0.3-0.8-0.4-1.1L148.4,95.7z"/>
		<path d="M146.7,89c0.1,0.4,0.3,0.8,0.4,1.2l21.6-12.6c-0.2-0.4-0.4-0.7-0.6-1.1L146.7,89z"/>
		<path d="M161.5,67.4l-18,15.2c0.2,0.4,0.4,0.7,0.6,1.1l18.1-15.3C162.1,68,161.8,67.7,161.5,67.4z"/>
		<path d="M153.5,59.6l-14.3,17.2c0.3,0.3,0.6,0.6,0.8,0.9l14.4-17.3C154.1,60.1,153.8,59.8,153.5,59.6z"/>
		<path d="M133.5,71.8c0.3,0.2,0.7,0.5,1,0.7l10.7-18.7c-0.4-0.2-0.7-0.4-1.1-0.6L133.5,71.8z"/>
		<path d="M128,68.6l7.1-19.6c-0.4-0.1-0.8-0.3-1.2-0.4l-7,19.5C127.3,68.3,127.7,68.4,128,68.6z"/>
		<path d="M120.8,66.1l3.5-20.1c-0.4-0.1-0.8-0.2-1.2-0.2l-3.5,20C120,65.9,120.4,66,120.8,66.1z"/>
		<path d="M112.6,65.2l0.4,0c0,0,0,0,0,0L113,45c0,0,0,0,0,0l-0.4,0c-0.3,0-0.5,0-0.8,0l0.1,20.2C112.1,65.2,112.4,65.2,112.6,65.2z
			"/>
		<path d="M105.4,65.9l-3.6-20c-0.4,0.1-0.8,0.1-1.2,0.2l3.6,20.1C104.6,66.1,105,66,105.4,65.9z"/>
		<path d="M98.1,68.2l-7.2-19.5c-0.4,0.1-0.8,0.3-1.1,0.4L97,68.7C97.4,68.6,97.7,68.4,98.1,68.2z"/>
		<path d="M97.8,70.2c-0.1,0-0.2,0.1-0.3,0.1l0,0C97.6,70.2,97.7,70.2,97.8,70.2z"/>
		<path d="M79.7,54.1l10.9,18.7c0.3-0.3,0.7-0.5,1-0.7L80.7,53.5C80.4,53.7,80,53.9,79.7,54.1z"/>
		<path d="M85.9,77L71.5,59.9c-0.3,0.3-0.6,0.5-0.9,0.8l14.6,17.3C85.4,77.6,85.7,77.3,85.9,77z"/>
		<path d="M62.7,68.7l18.2,15.2c0.2-0.4,0.4-0.7,0.6-1.1L63.5,67.8C63.2,68.1,63,68.4,62.7,68.7z"/>
		<path d="M56.3,78l21.8,12.5c0.1-0.4,0.3-0.8,0.4-1.2L57,76.9C56.8,77.3,56.5,77.6,56.3,78z"/>
		<path d="M51.7,88.2l24.9,9c0-0.4,0.1-0.8,0.2-1.2l-24.7-8.9C52,87.5,51.8,87.8,51.7,88.2z"/>
		<path d="M48.9,99.1l21.9,3.8l1.7-1l-23.3-4C49.1,98.3,49,98.7,48.9,99.1z"/>
		<path d="M147.7,92.4c0.1,0.4,0.2,0.8,0.3,1.2l23.3-10.9l11.8-5.5l0.1,0l-0.5-1.1l-0.1,0l-11.8,5.5L147.7,92.4z"/>
		<path d="M176.5,65.4L176.5,65.4l-0.6-1l-0.1,0l-10.7,7.5l-19.7,13.9c0.2,0.4,0.3,0.8,0.5,1.1l19.9-14L176.5,65.4z"/>
		<path d="M142.3,80.6l16.3-16.4l9.2-9.2l0.1-0.1l-0.9-0.9l-0.1,0.1l-9.2,9.2l-16.2,16.2C141.8,80,142.1,80.3,142.3,80.6z"/>
		<path d="M140.4,80.9C140.4,80.8,140.4,80.8,140.4,80.9L140.4,80.9C140.4,80.8,140.4,80.8,140.4,80.9z"/>
		<path d="M137.5,75L150,57l7.5-10.7l0.1-0.1l-1-0.7l-0.1,0.1l-7.5,10.7l-12.5,17.9C136.8,74.5,137.2,74.7,137.5,75z"/>
		<path d="M131.5,70.4l8.9-19.2l5.5-11.8l0-0.1l-1.1-0.5l0,0.1l-5.5,11.8l-8.9,19.1C130.8,70,131.1,70.2,131.5,70.4z"/>
		<path d="M124.5,67.2l5.3-19.9l3.4-12.6l0-0.1l-1.2-0.3l0,0.1L128.6,47l-5.3,19.8C123.8,66.9,124.2,67,124.5,67.2z"/>
		<path d="M118.8,45.3l1.1-13l0-0.1l-1.2-0.1l0,0.1l-1.1,13l-1.7,20.2c0.4,0,0.8,0.1,1.2,0.1L118.8,45.3z"/>
		<path d="M106.3,45.3l1.8,20.2c0.4-0.1,0.8-0.1,1.2-0.1l-1.8-20.1l-1.2-13l0-0.1l-1.2,0.1l0,0.1L106.3,45.3z"/>
		<path d="M95.2,47.4l5.4,19.9c0.4-0.1,0.8-0.3,1.2-0.4L96.4,47L93,34.5l0-0.1l-1.2,0.3l0,0.1L95.2,47.4z"/>
		<path d="M84.7,51.4l9,19.2c0.3-0.2,0.7-0.4,1.1-0.6l-8.9-19.1L80.3,39l0-0.1l-1.1,0.5l0,0.1L84.7,51.4z"/>
		<path d="M75.1,57.1l12.7,18c0.3-0.3,0.6-0.6,0.9-0.8L76.1,56.4l-7.5-10.7l-0.1-0.1l-1,0.7l0,0.1L75.1,57.1z"/>
		<path d="M66.5,64.4l16.4,16.3c0.2-0.3,0.5-0.7,0.7-1L67.4,63.6l-9.3-9.2l-0.1-0.1l-0.9,0.9l0.1,0.1L66.5,64.4z"/>
		<path d="M59.4,73.1l20,13.9c0.2-0.4,0.3-0.8,0.5-1.1L60.1,72.1l-10.7-7.5l-0.1-0.1l-0.7,1l0.1,0L59.4,73.1z"/>
		<path d="M53.8,82.9l23.4,10.9c0.1-0.4,0.2-0.8,0.3-1.2L54.4,81.8l-11.8-5.5l-0.1,0l-0.5,1.1l0.1,0L53.8,82.9z"/>
		<path d="M50.1,93.5l25.3,6.7l1.1-0.6c0-0.1,0-0.2,0-0.4l-26.1-6.9L37.8,89l-0.1,0l-0.3,1.2l0.1,0L50.1,93.5z"/>
		<polygon points="174.2,114.2 174,114.2 174,114.2 		"/>
		<polygon points="48.3,104.6 65.3,106.1 67.1,105 48.4,103.4 35.4,102.3 35.3,102.3 35.2,103.5 35.3,103.5 		"/>
		<polygon points="157,105 158.9,106 177,104.4 189.9,103.2 190,103.2 189.9,102 189.8,102 176.9,103.2 		"/>
		<path d="M148.8,99.1c0,0.4,0,0.8,0.1,1.2l26.3-7.1l12.6-3.4l0.1,0l-0.3-1.2l-0.1,0l-12.6,3.4L148.8,99.1z"/>
		<path d="M26.7,121.3c-2-0.7-4.2-1.2-6.6-1.2c-11.1,0-17.7,8.4-17.7,17.6s6.6,17.6,17.7,17.6c2.4,0,4.6-0.4,6.6-1.2
			c7-2.6,11.1-9.3,11.1-16.4C37.7,130.6,33.7,123.9,26.7,121.3z M26.7,145.7c-1.7,1.6-3.9,2.7-6.6,2.7c-6.1,0-9.8-5.1-9.8-10.6
			s3.7-10.6,9.8-10.6c2.7,0,5,1,6.6,2.7c2,2,3.2,4.9,3.2,7.9C29.8,140.8,28.7,143.7,26.7,145.7z"/>
		<polygon points="58.5,134.2 63.1,128.4 64.6,126.5 68,122.2 69,121 67.7,121 59.6,121 57.6,123.7 56.4,125.3 51.9,131.2 
			51.8,131.3 50.5,133 48.8,135.2 48.8,133.6 48.8,132.3 48.8,127.4 48.8,126.1 48.8,121.6 48.8,121 45.3,121 41.1,121 41.1,121.8 
			41.1,123 41.1,128.2 41.1,129.4 41.1,135.2 41.1,136.5 41.1,139.6 41.1,154.5 48.8,154.5 48.8,153.8 48.8,153.7 48.8,153.6 
			48.8,147.3 48.8,145.9 48.8,140.3 51.8,144.2 52.6,145.2 55.4,149 56.2,149.9 59.2,153.9 59.6,154.5 60.4,154.5 66.3,154.5 
			67,154.5 68.7,154.5 69,154.5 68.8,154.3 68.1,153.4 65.5,150.1 64.8,149.2 62.1,145.8 61.3,144.8 58.8,141.6 58,140.6 
			55.7,137.7 56.8,136.3 		"/>
		<polygon points="87.8,138.4 92.1,131.2 92.6,130.5 93,129.9 93,129.8 95.3,126.1 96.6,123.8 98.4,121 98.1,121 97.3,121 95.2,121 
			94.1,121 91.7,121 89.5,121 86.7,121 84.2,121 84.2,121 83.2,121 82.2,121 79.6,121 72.4,121 71,121 71,121.4 71,124.2 71,125.5 
			71,127.5 72.8,127.5 75.7,127.5 80.5,127.5 82.9,127.5 86,127.5 86,127.5 84.5,130 81.4,135.1 79.5,138.4 73.9,147.5 71.2,152 
			69.7,154.5 74.4,154.5 76,154.5 80.5,154.5 82,154.5 86.2,154.5 87.6,154.5 91.1,154.5 92.4,154.5 95.8,154.5 97.1,154.5 
			97.8,154.5 97.8,152.4 97.8,148.8 97.8,148 95.5,148 94.1,148 91.3,148 89.9,148 86.6,148 85.1,148 82,148 83.5,145.4 		"/>
		<polygon points="108.2,154.5 108.5,154.5 108.5,151.1 108.5,137.4 108.5,137.3 108.5,135.7 108.5,135.7 108.5,130.1 108.5,127.6 
			108.5,122.9 108.5,122.9 108.5,121 108,121 107.8,121 106.8,121 106.6,121 105.4,121 105.3,121 103.9,121 103.9,121 102.3,121 
			102,121 100.6,121 100.6,122.4 100.6,123 100.6,124.9 100.6,125.7 100.6,127.8 100.6,129.3 100.6,131.7 100.6,133.8 100.6,133.8 
			100.6,134 100.6,135.5 100.6,136.9 100.6,141.1 100.6,144.7 100.6,152.3 100.6,154.5 101.3,154.5 104.2,154.5 105.5,154.5 		"/>
		<path d="M142.7,133.8c-0.3-1.2-0.7-2.3-1.2-3.4c-0.4-0.9-0.9-1.7-1.5-2.5c-0.4-0.5-0.8-1.1-1.3-1.6c-0.4-0.4-0.7-0.8-1.1-1.1l0,0
			c-1.8-1.5-3.9-2.8-6.4-3.5c-0.9-0.3-1.9-0.5-3-0.6c-0.3,0-0.5-0.1-0.8-0.1c-0.5,0-1.1-0.1-1.7-0.1h-0.3H125h-1.7h-0.2h-1.6h-0.1
			H120H120h-1.3h-0.1h-1.1h-0.2h-1h-0.2h-0.9h-0.2h-0.8h-0.2h-0.6v5.2v9.7v0v1.6v16.9h2.5h1.2h2.8h1.2h2.8h1.3h0.4
			c0.9,0,1.8-0.1,2.7-0.2c0.4-0.1,0.8-0.1,1.2-0.2c1-0.2,1.9-0.5,2.8-0.8c0.4-0.1,0.8-0.3,1.1-0.5c1-0.4,1.8-0.9,2.7-1.5
			c0.3-0.2,0.7-0.5,1-0.8c0.8-0.6,1.4-1.3,2.1-2.1c0.3-0.3,0.5-0.7,0.8-1c0.6-0.9,1.1-1.8,1.6-2.7c0.2-0.4,0.4-0.8,0.5-1.3
			c0.3-1,0.6-1.9,0.8-3c0.1-0.5,0.1-1,0.2-1.5c0-0.4,0.1-0.9,0.1-1.3c0-0.7-0.1-1.4-0.1-2.1C143,135,142.9,134.4,142.7,133.8z
			 M135,140.3c-0.1,0.5-0.3,1-0.5,1.5c-0.3,0.8-0.7,1.5-1.2,2.2c-0.3,0.3-0.5,0.7-0.8,1c-0.6,0.6-1.2,1.1-1.9,1.5
			c-0.3,0.2-0.7,0.4-1.1,0.6c-0.7,0.3-1.4,0.5-2.2,0.6c-0.4,0.1-0.8,0.1-1.2,0.1c-0.2,0-0.4,0-0.6,0h-1.8h-1.3h-1.1v-3.9v-4.7v-2.6
			v-1.7v0v-0.1v-3.5v-1.8v-1.7h0.6h0.7h1.4h0.7h0.7c0.3,0,0.5,0,0.8,0c0.4,0,0.8,0.1,1.2,0.1c0.8,0.1,1.5,0.3,2.1,0.6
			c0.9,0.4,1.8,0.9,2.5,1.6c0,0,0,0,0,0c0.4,0.4,0.8,0.7,1.1,1.2c0.9,1.1,1.5,2.4,1.9,3.8c0.2,0.7,0.3,1.5,0.3,2.3
			c0,0.2,0,0.3,0,0.5C135.3,138.6,135.2,139.5,135,140.3z"/>
		<polygon points="153.5,121 146.4,121 146.4,121.1 146.4,122.4 146.4,124.5 146.4,125.9 146.4,128.2 146.4,129.6 146.4,132.4 
			146.4,133.9 146.4,136.9 146.4,138.5 146.4,142.4 146.4,144.1 146.4,148.6 146.4,150.5 146.4,154.5 149.8,154.5 151.4,154.5 
			156.9,154.5 158.6,154.5 158.9,154.5 165.6,154.5 166.8,154.5 166.8,153.9 166.8,148.3 164.2,148.3 160.1,148.3 158.2,148.3 
			154.2,148.3 154.2,144.9 154.2,143.4 154.2,140.9 156.5,140.9 158.7,140.9 166.2,140.9 166.8,140.9 166.8,139.9 166.8,135.4 
			166.8,134.8 165.7,134.8 158,134.8 155.6,134.8 154.2,134.8 154.2,134 154.2,132.6 154.2,129.5 154.2,128.1 154.2,127.2 
			160,127.2 163.6,127.2 166.8,127.2 166.8,124.6 166.8,123.3 166.8,121 158.2,121 		"/>
		<polygon points="191.9,121 191.9,142.8 186.5,133.2 184.4,129.2 183.5,127.8 180.2,121.8 179.8,121 176.2,121 175.5,121 
			171.7,121 171.7,124.6 171.7,125.9 171.7,130.2 171.7,131.5 171.7,135.5 171.7,136.3 171.7,137.6 171.7,142.7 171.7,144.1 
			171.7,150 171.7,151.5 171.7,154.5 175.9,154.5 179.5,154.5 179.5,148.9 179.5,148.5 179.5,147.1 179.5,141.2 179.5,139.9 
			179.5,134.2 179.5,133 180.4,134.6 183.7,140.6 191.5,154.5 198.6,154.5 199.6,154.5 199.6,121 198.6,121 		"/>
		<polygon points="201.6,121 201.6,127.7 209.1,127.7 209.1,154.5 216.9,154.5 216.9,127.7 224.5,127.7 224.5,121 		"/>
	</g>
	<g>
		<path d="M83.4,196.3c0,0.7,0.4,1.1,1,1.1c0.5,0,0.8-0.3,0.8-0.7c0-0.5-0.4-0.7-1-0.9c-1.1-0.4-2.1-0.8-2.1-2
			c0-1.3,1.1-1.8,2.2-1.8c1.5,0,2.2,0.9,2.2,2h-1.5c0-0.6-0.3-0.9-0.8-0.9c-0.4,0-0.8,0.2-0.8,0.6c0,0.4,0.3,0.6,0.9,0.8
			c1.1,0.4,2.2,0.8,2.2,2.1c0,1.2-1,2-2.3,2c-1.4,0-2.4-0.8-2.4-2.2H83.4z"/>
		<path d="M87.9,192.1h1.5v6.3h-1.5V192.1z"/>
		<path d="M94.6,196.2v-4.1h1.4v6.3h-1.5l-2.3-4v4h-1.5v-6.3h1.5L94.6,196.2z"/>
		<path d="M103.7,196.1c-0.2,1.3-1.4,2.4-3.1,2.4c-2.1,0-3.4-1.5-3.4-3.3c0-1.7,1.2-3.3,3.4-3.3c1.8,0,3,1.2,3.2,2.6h-1.5
			c-0.1-0.7-0.7-1.3-1.6-1.3c-1.2,0-1.9,1-1.9,2c0,1.1,0.8,2,1.9,2c0.8,0,1.4-0.5,1.6-1.1H103.7z"/>
		<path d="M106.3,193.3v1.4h2.4v1.1h-2.4v1.4h2.4v1.2h-3.8v-6.3h3.8v1.2H106.3z"/>
		<path d="M118.7,198.4h-1.4v-3.9l-1.4,3.9h-1.1l-1.4-3.9v3.9H112v-6.3h1.7l1.7,4.4l1.7-4.4h1.7V198.4z"/>
		<path d="M126.8,198.4h-1.4v-3.9l-1.4,3.9H123l-1.4-3.9v3.9h-1.4v-6.3h1.7l1.7,4.4l1.7-4.4h1.7V198.4z"/>
		<path d="M131.5,192.1h1.6l-1.9,3.1l1.9,3.1h-1.6l-1.1-2l-1.1,2h-1.6l1.9-3.1l-1.9-3.1h1.6l1.1,2L131.5,192.1z"/>
		<path d="M133.9,192.1h1.5v6.3h-1.5V192.1z"/>
		<path d="M139.8,198.4h-1.3l-2.2-6.3h1.6l1.4,4.4l1.4-4.4h1.6L139.8,198.4z"/>
	</g>
</g>
</svg>
