<?xml version="1.0" encoding="utf-8"?>
<!-- Generator: Adobe Illustrator 16.0.0, SVG Export Plug-In . SVG Version: 6.00 Build 0)  -->
<!DOCTYPE svg PUBLIC "-//W3C//DTD SVG 1.1//EN" "http://www.w3.org/Graphics/SVG/1.1/DTD/svg11.dtd">
<svg version="1.1" id="Layer_1" xmlns="http://www.w3.org/2000/svg" xmlns:xlink="http://www.w3.org/1999/xlink" x="0px" y="0px"
	 width="414.129px" height="157.195px" viewBox="0 0 414.129 157.195" enable-background="new 0 0 414.129 157.195"
	 xml:space="preserve">
<g>
	<g>
		<path fill="#FFFFFF" d="M120.127,0l-10.119,9.67c-6.41,6.074-13.158,12.145-19.23,18.105V0H79.982v76.24h10.795V48.467
			l29.35,27.773h15.518c-12.705-12.145-27.662-25.974-40.369-38.008L135.645,0H120.127z"/>
		<polygon fill="#FFFFFF" points="140.436,0 140.436,10.571 159.891,10.571 138.863,76.24 172.934,76.24 172.934,65.56 
			153.594,65.56 174.512,0 		"/>
		<rect x="180.303" fill="#FFFFFF" width="10.793" height="76.24"/>
		<path fill="#FFFFFF" d="M238.574,4.724C230.928,0.34,222.043,0,221.707,0h-20.689v76.24h20.689c0.336,0,9.109-0.562,16.867-4.61
			c13.492-8.097,16.867-22.713,16.867-33.397C255.441,27.663,251.619,12.934,238.574,4.724z M233.514,62.073
			c-5.848,3.486-11.695,3.486-11.807,3.486h-10.008V10.571h10.008c0.111,0,5.734,0,11.58,3.599
			c7.762,4.386,11.473,12.481,11.473,24.062C244.76,49.479,241.162,57.686,233.514,62.073z"/>
		<polygon fill="#FFFFFF" points="263.295,76.24 304,76.24 304,65.56 273.979,65.56 273.979,43.52 304,43.52 304,32.725 
			273.979,32.725 273.979,10.571 304,10.571 304,0 263.295,0 		"/>
		<polygon fill="#FFFFFF" points="373.086,0 373.086,10.571 388.264,10.571 388.264,76.24 398.838,76.24 398.838,10.571 
			414.129,10.571 414.129,0 		"/>
		<polygon fill="#FFFFFF" points="358.352,56.355 320.906,0.774 312.359,0.774 312.359,76.24 323.043,76.24 323.043,21.156 
			360.398,75.607 368.805,75.607 368.805,0.973 358.352,0.973 		"/>
		<path fill="#FFFFFF" d="M38.119,0C16.756,0,0,16.982,0,38.232C0,59.262,16.756,76.24,38.119,76.24
			c21.029,0,38.01-16.979,38.01-38.008C76.129,16.982,59.148,0,38.119,0z M38.119,65.895c-8.93,0-16.898-4.262-21.986-10.828h2.258
			h39.348h2.191C54.891,61.633,46.986,65.895,38.119,65.895z M28.736,45.808c1.705-3.427,5.246-5.787,9.326-5.787
			s7.623,2.36,9.33,5.787H28.736z M64.393,46.531v-0.724h-7.229c-2.09-8.616-9.85-15.042-19.102-15.042
			c-9.25,0-17.012,6.426-19.098,15.042h-7.23v1.021c-0.896-2.712-1.389-5.6-1.389-8.597c0-15.291,12.48-27.887,27.773-27.887
			c15.182,0,27.551,12.596,27.551,27.887C65.67,41.119,65.221,43.906,64.393,46.531z"/>
	</g>
	<g>
		<path fill="#FFFFFF" d="M109.602,103.125c0.82,0,2.688,0.085,4.132,0.085h4.784c1.84,0,3.396-0.085,3.991-0.198
			c-0.085,0.765-0.142,3.34-0.057,4.783l-0.765,0.028c-0.113-0.735-0.312-1.642-0.623-2.405c-0.424-1.02-0.849-1.303-3.595-1.303
			h-2.095c-0.339,0-0.424,0.113-0.452,0.453c-0.057,0.85-0.113,2.123-0.113,3.68v3.113c0.312,0.028,1.245,0.028,1.698,0.028
			c2.547,0,2.943-0.48,3.198-2.405h0.708c-0.17,1.925-0.17,4.302-0.057,6.113h-0.736c-0.227-2.151-0.51-2.773-3.142-2.773
			c-0.538,0-1.387,0-1.67,0.057v2.717c0,1.613,0.028,3.396,0.113,4.388c0.028,0.566,0.198,0.707,2.773,0.707
			c2.689,0,3.453-0.169,4.133-0.962c0.651-0.708,1.16-2.095,1.472-3.227l0.68,0.113c0,0.65-0.566,4.33-0.708,5.066
			c-0.905-0.057-2.688-0.113-6.001-0.113h-3.538c-1.358,0-3.396,0.085-4.358,0.085l0.028-0.793l1.755-0.17
			c0.537-0.056,0.735-0.282,0.764-1.075c0.085-1.075,0.113-2.463,0.113-4.104v-5.972c0-2.038-0.028-3.481-0.057-4.303
			c-0.028-0.51-0.255-0.68-0.934-0.736l-1.443-0.113V103.125z"/>
		<path fill="#FFFFFF" d="M125.563,120.362c1.443-0.057,1.698-0.17,1.755-0.849c0.057-0.85,0.085-1.84,0.085-3.198v-2.52
			c0-1.5-0.028-2.717-0.085-3.453c0-0.396-0.227-0.453-1.698-0.453l0.056-0.764c1.331,0,2.803-0.142,4.076-0.425
			c0.085,0.538,0.17,1.67,0.198,2.123c0.991-1.02,2.35-2.236,4.388-2.236c1.868,0,2.83,0.877,3.255,1.727
			c0.255,0.481,0.368,1.075,0.368,1.755v7.529c0,0.622,0.142,0.65,1.84,0.764l-0.057,0.793c-0.878,0-1.953-0.085-3.199-0.085
			c-1.273,0-2.179,0.085-2.858,0.085l0.028-0.793c1.273-0.057,1.557-0.226,1.585-0.735c0.085-0.595,0.142-1.896,0.142-4.133
			c0-3.566-0.057-3.906-0.283-4.359c-0.34-0.707-0.905-1.104-1.896-1.104c-1.358,0-2.377,0.68-3.028,1.812
			c-0.255,0.425-0.312,0.821-0.312,1.443v3.34c0,1.189,0,2.35,0.057,2.973c0.057,0.565,0.283,0.707,1.727,0.764l-0.057,0.793
			c-0.707,0-2.123-0.085-3.142-0.085c-1.132,0-2.095,0.085-2.943,0.085V120.362z"/>
		<path fill="#FFFFFF" d="M148.599,102.275c1.104-0.028,3.623-0.198,4.728-0.367c-0.028,1.16-0.142,3.425-0.142,6.368v6.538
			c0,2.831,0.028,4.02,0.142,4.869c0.057,0.48,0.227,0.622,0.651,0.594h1.33l-0.17,0.793c-1.133,0.028-3.481,0.198-4.501,0.425
			c0-0.566,0.028-1.415,0-2.01h-0.085c-1.188,1.188-2.462,1.981-4.104,1.981c-1.698,0-3.001-0.736-3.793-1.84
			c-0.765-1.048-1.189-2.52-1.189-4.161c0-3.708,2.095-6.878,6.397-6.878c1.273,0,2.321,0.368,2.802,0.735
			c0-3.085,0-4.67-0.057-5.66c-0.057-0.623-0.227-0.68-2.122-0.623L148.599,102.275z M144.241,114.984
			c0,1.444,0.312,2.916,0.934,3.765c0.595,0.85,1.473,1.274,2.406,1.274c1.132,0,2.095-0.425,2.774-1.643
			c0.226-0.367,0.311-0.792,0.311-4.415c0-2.321-0.028-2.689-0.198-3c-0.367-0.68-1.047-1.501-2.547-1.501
			c-2.491,0-3.68,2.463-3.68,5.491V114.984z"/>
		<path fill="#FFFFFF" d="M163.825,108.984c0.935,0,2.038-0.057,2.888-0.085c0.82-0.057,1.472-0.113,1.783-0.142
			c-0.028,0.849-0.113,2.321-0.113,4.133v3.34c0,1.727,0.028,2.83,0.113,3.51c0.057,0.509,0.198,0.594,2.01,0.565l-0.085,0.765
			c-0.68,0.028-1.557,0.085-2.435,0.17c-0.849,0.057-1.585,0.17-2.095,0.255c-0.028-0.736-0.057-1.896-0.057-2.689
			c-0.849,1.161-2.688,2.661-5.038,2.661c-1.642,0-2.435-0.68-2.717-1.246c-0.255-0.424-0.368-0.99-0.368-1.67
			c0.028-1.472,0.085-4.104,0.085-6.028c0-1.274-0.028-1.953-0.057-2.35c-0.028-0.425-0.34-0.453-1.783-0.453l0.113-0.764
			c0.877,0,1.84-0.028,2.632-0.113c0.821-0.057,1.415-0.113,1.84-0.17c-0.113,0.764-0.227,2.462-0.227,5.718
			c-0.028,2.519,0,4.047,0.17,4.727c0.142,0.623,0.623,1.02,1.443,1.02c1.643,0,3.001-1.189,3.623-2.689
			c0.255-0.623,0.312-1.075,0.312-1.698v-2.746c0-1.358-0.028-2.207-0.085-2.773c-0.057-0.425-0.339-0.453-1.896-0.481
			L163.825,108.984z"/>
		<path fill="#FFFFFF" d="M173.39,113.824c0-1.755-0.085-2.943-0.198-3.453c-0.057-0.283-0.198-0.425-0.566-0.425l-1.104-0.028
			l0.028-0.764c1.16-0.057,2.83-0.198,3.934-0.51l0.085,0.085c0.113,0.679,0.198,2.151,0.198,2.745h0.085
			c0.68-1.5,1.67-2.887,3.425-2.887c1.161,0,1.783,0.877,1.783,1.698c0,1.188-0.877,1.585-1.302,1.585s-0.708-0.142-0.821-0.453
			c-0.169-0.594-0.367-0.962-0.99-0.962c-0.821,0-1.5,1.16-1.84,2.35c-0.142,0.48-0.198,0.934-0.198,1.585
			c0,3.142,0,4.415,0.057,5.123c0.028,0.623,0.227,0.764,2.378,0.849l-0.085,0.793c-1.048,0-2.35-0.085-3.595-0.085
			s-2.208,0.085-3.227,0.085l0.085-0.793c1.443-0.057,1.67-0.198,1.755-0.679c0.057-0.595,0.113-1.896,0.113-3.538V113.824z"/>
		<path fill="#FFFFFF" d="M188.248,121.155c-0.849,0-1.896-0.085-3.255-0.085c-1.415,0-2.208,0.085-3.057,0.085l0.028-0.793
			c1.642-0.057,1.84-0.254,1.868-0.764c0.057-0.566,0.113-1.698,0.113-3.368v-3.086c0-1.5-0.028-2.434-0.085-2.887
			c-0.028-0.396-0.312-0.453-1.812-0.396l0.057-0.764c1.33-0.085,3.17-0.198,4.443-0.481c-0.028,0.679-0.085,2.236-0.085,4.387
			v3.256c0,1.783,0.028,2.688,0.085,3.312c0.028,0.594,0.312,0.707,1.755,0.792L188.248,121.155z M185.049,103.097
			c0.934,0,1.443,0.623,1.443,1.528c0,0.906-0.707,1.5-1.585,1.5c-0.765,0-1.415-0.537-1.415-1.472c0-0.905,0.65-1.557,1.528-1.557
			H185.049z"/>
		<path fill="#FFFFFF" d="M189.605,120.362c1.443-0.057,1.698-0.17,1.755-0.849c0.057-0.85,0.085-1.84,0.085-3.198v-2.52
			c0-1.5-0.028-2.717-0.085-3.453c0-0.396-0.227-0.453-1.698-0.453l0.056-0.764c1.331,0,2.803-0.142,4.076-0.425
			c0.085,0.538,0.17,1.67,0.198,2.123c0.991-1.02,2.35-2.236,4.388-2.236c1.868,0,2.83,0.877,3.255,1.727
			c0.255,0.481,0.368,1.075,0.368,1.755v7.529c0,0.622,0.142,0.65,1.84,0.764l-0.057,0.793c-0.878,0-1.953-0.085-3.199-0.085
			c-1.273,0-2.179,0.085-2.858,0.085l0.028-0.793c1.273-0.057,1.557-0.226,1.585-0.735c0.085-0.595,0.142-1.896,0.142-4.133
			c0-3.566-0.057-3.906-0.283-4.359c-0.34-0.707-0.905-1.104-1.896-1.104c-1.358,0-2.377,0.68-3.028,1.812
			c-0.255,0.425-0.312,0.821-0.312,1.443v3.34c0,1.189,0,2.35,0.057,2.973c0.057,0.565,0.283,0.707,1.727,0.764l-0.057,0.793
			c-0.707,0-2.123-0.085-3.142-0.085c-1.132,0-2.095,0.085-2.943,0.085V120.362z"/>
		<path fill="#FFFFFF" d="M208.566,122.542c-0.736,0.312-1.358,0.85-1.358,1.868c0,1.642,1.755,2.604,4.019,2.604
			c3.171,0,4.728-1.557,4.728-3.425c0-1.133-0.821-1.783-1.925-1.783c-2.095,0-3.963,0-4.926-0.028
			c-1.132,0-2.122-0.255-2.858-1.048c-0.425-0.453-0.708-1.019-0.708-1.812c0-1.33,0.991-2.293,1.868-2.83
			c-0.764-0.793-1.047-1.896-1.047-2.888c0-3.057,2.406-4.613,5.038-4.613c1.585,0,2.52,0.538,2.831,0.735
			c0.962-0.764,1.812-1.302,2.66-1.302c0.708,0,1.218,0.51,1.218,0.85c-0.057,0.452-0.623,0.99-0.991,1.16
			c-0.283-0.255-0.708-0.453-1.33-0.453c-0.34,0-0.651,0.085-0.935,0.198c0.821,0.793,1.218,2.01,1.218,3.142
			c0,3.029-2.463,4.501-5.039,4.501c-1.415,0-2.49-0.396-3-0.793c-0.651,0.255-1.132,0.821-1.132,1.529
			c0,0.764,0.764,1.188,1.642,1.188c1.585,0,3.425-0.057,5.831-0.057c0.849,0,1.67,0.227,2.292,0.736
			c0.736,0.594,1.161,1.585,1.161,2.547c0,3.708-3.85,5.491-7.303,5.491c-3.312,0-5.208-1.302-5.208-3.255
			c0-0.736,0.339-1.33,1.047-1.812c0.396-0.312,1.16-0.736,1.84-0.963L208.566,122.542z M211.169,109.437
			c-1.528,0-2.235,1.416-2.235,3.566c0,1.755,0.594,3.595,2.264,3.595c1.698,0,2.236-1.642,2.236-3.566
			c0-1.727-0.453-3.595-2.236-3.595H211.169z"/>
		<path fill="#FFFFFF" d="M239.131,109.183c-0.17-3.511-1.84-5.576-4.897-5.576c-1.727,0-3.17,0.565-4.358,2.179
			c-1.104,1.558-1.642,3.821-1.642,6.397c0,2.35,0.537,4.557,1.5,6.001c1.16,1.755,2.717,2.434,4.642,2.434
			c1.896,0,2.972-0.65,3.085-1.642c0.113-0.849,0.113-2.378,0.113-3.68c0-1.585-0.17-1.783-1.613-1.896l-1.443-0.113l-0.028-0.792
			c0.935,0,3.028,0.085,4.246,0.085c1.217,0,2.66-0.028,3.368-0.085v0.764c-1.443,0.198-1.67,0.312-1.727,0.991
			c-0.113,1.16-0.057,2.18-0.057,3.028c0,1.443,0.085,2.236,0.198,2.859c-0.651,0.169-2.038,0.594-2.803,0.82
			c-0.99,0.283-2.377,0.566-3.765,0.566c-3.425,0-5.604-0.906-7.133-2.859c-1.188-1.528-1.812-3.765-1.812-6.34
			c0-3.765,1.528-6.708,4.218-8.294c1.5-0.934,3.057-1.273,5.038-1.273c2.576,0,4.189,0.878,4.812,1.528l0.622-1.443l0.651,0.227
			c-0.198,0.99-0.51,3.991-0.396,6.114H239.131z"/>
		<path fill="#FFFFFF" d="M250.505,108.588c3.765,0,6.029,2.632,6.029,6.34c0,3.935-2.321,6.539-6.228,6.539
			c-4.133,0-6.143-2.718-6.143-6.341c0-3.595,2.265-6.538,6.312-6.538H250.505z M250.307,109.437c-1.132,0-1.868,0.538-2.435,1.388
			c-0.509,0.849-0.82,2.235-0.82,3.878c0,1.698,0.312,3.227,0.82,4.188c0.595,1.133,1.529,1.727,2.661,1.727
			c1.104,0,1.896-0.48,2.435-1.5c0.424-0.849,0.707-2.208,0.707-3.935s-0.312-3.255-0.792-4.132
			c-0.51-0.963-1.331-1.614-2.548-1.614H250.307z"/>
		<path fill="#FFFFFF" d="M265.221,108.588c3.765,0,6.029,2.632,6.029,6.34c0,3.935-2.321,6.539-6.228,6.539
			c-4.133,0-6.143-2.718-6.143-6.341c0-3.595,2.265-6.538,6.312-6.538H265.221z M265.023,109.437c-1.132,0-1.868,0.538-2.435,1.388
			c-0.509,0.849-0.82,2.235-0.82,3.878c0,1.698,0.312,3.227,0.82,4.188c0.595,1.133,1.529,1.727,2.661,1.727
			c1.104,0,1.896-0.48,2.435-1.5c0.424-0.849,0.707-2.208,0.707-3.935s-0.312-3.255-0.792-4.132
			c-0.51-0.963-1.331-1.614-2.548-1.614H265.023z"/>
		<path fill="#FFFFFF" d="M280.701,102.275c1.104-0.028,3.623-0.198,4.728-0.367c-0.028,1.16-0.142,3.425-0.142,6.368v6.538
			c0,2.831,0.028,4.02,0.142,4.869c0.057,0.48,0.227,0.622,0.651,0.594h1.33l-0.17,0.793c-1.133,0.028-3.481,0.198-4.501,0.425
			c0-0.566,0.028-1.415,0-2.01h-0.085c-1.188,1.188-2.462,1.981-4.104,1.981c-1.698,0-3.001-0.736-3.793-1.84
			c-0.765-1.048-1.189-2.52-1.189-4.161c0-3.708,2.095-6.878,6.397-6.878c1.273,0,2.321,0.368,2.802,0.735
			c0-3.085,0-4.67-0.057-5.66c-0.057-0.623-0.227-0.68-2.122-0.623L280.701,102.275z M276.342,114.984
			c0,1.444,0.312,2.916,0.934,3.765c0.595,0.85,1.473,1.274,2.406,1.274c1.132,0,2.095-0.425,2.774-1.643
			c0.226-0.367,0.311-0.792,0.311-4.415c0-2.321-0.028-2.689-0.198-3c-0.367-0.68-1.047-1.501-2.547-1.501
			c-2.491,0-3.68,2.463-3.68,5.491V114.984z"/>
		<path fill="#FFFFFF" d="M296.69,113.088c-0.142-2.15-1.33-3.651-3.142-3.651c-1.273,0-2.095,0.793-2.095,2.01
			c0,0.821,0.425,1.274,1.075,1.613c0.878,0.453,2.689,1.048,3.736,1.558c1.444,0.622,2.038,1.613,2.038,2.887
			c0,2.802-2.632,3.963-5.066,3.963c-1.528,0-3.142-0.453-3.935-0.821c0.028-0.65,0.085-2.547,0.028-4.132l0.708-0.113
			c0.057,0.594,0.198,1.5,0.51,2.235c0.509,1.303,1.642,1.953,3.057,1.953c1.585,0,2.491-0.82,2.491-2.066
			c0-0.679-0.283-1.217-1.02-1.585c-0.962-0.452-2.378-1.047-3.368-1.472c-1.415-0.595-2.265-1.528-2.265-3.085
			c0-2.406,1.925-3.793,4.331-3.793c1.16,0,2.321,0.368,2.745,0.735l0.34-0.962l0.736,0.227c-0.198,1.472-0.227,3.142-0.17,4.33
			L296.69,113.088z"/>
		<path fill="#FFFFFF" d="M79.804,129.854c0.905,0,2.632,0.085,4.358,0.085h4.048c3.255,0,4.331-0.113,5.066-0.198
			c-0.227,2.01-0.17,4.133-0.142,4.925l-0.735,0.057c-0.085-0.679-0.255-1.585-0.538-2.434c-0.368-1.048-0.906-1.473-3.793-1.473
			h-2.406c-0.311,0-0.537,0.057-0.565,0.396c-0.028,0.283-0.085,1.5-0.085,3.878v3.312c0.312,0.028,1.5,0.028,2.208,0.028
			c2.434,0,2.83-0.368,3.17-2.547l0.707,0.085c-0.197,1.755-0.142,5.293,0,6.312h-0.764c-0.34-2.236-0.453-2.915-3.198-2.915
			c-0.68,0-1.868,0-2.123,0.028v3.028c0,2.236,0.057,3.142,0.085,3.68c0.028,0.481,0.198,0.736,0.735,0.793
			c0.453,0.027,1.388,0.169,2.095,0.197l-0.085,0.793c-0.99,0-2.717-0.085-4.076-0.085c-1.273,0-3.057,0.085-4.019,0.085
			l-0.028-0.793l1.613-0.142c0.51-0.028,0.735-0.254,0.792-0.735c0.057-0.595,0.113-2.01,0.113-4.189v-6.736
			c0-2.378-0.028-3.425-0.057-3.85c-0.028-0.396-0.227-0.623-0.594-0.651l-1.755-0.142L79.804,129.854z"/>
		<path fill="#FFFFFF" d="M100.493,135.317c3.765,0,6.029,2.632,6.029,6.34c0,3.935-2.321,6.539-6.228,6.539
			c-4.133,0-6.143-2.718-6.143-6.341c0-3.595,2.265-6.538,6.312-6.538H100.493z M100.294,136.166c-1.132,0-1.868,0.538-2.435,1.388
			c-0.509,0.849-0.82,2.235-0.82,3.878c0,1.698,0.312,3.227,0.82,4.188c0.595,1.133,1.529,1.727,2.661,1.727
			c1.104,0,1.896-0.48,2.435-1.5c0.424-0.849,0.707-2.208,0.707-3.935s-0.312-3.255-0.792-4.132
			c-0.51-0.963-1.331-1.614-2.548-1.614H100.294z"/>
		<path fill="#FFFFFF" d="M110.199,140.554c0-1.755-0.085-2.943-0.198-3.453c-0.057-0.283-0.198-0.425-0.566-0.425l-1.104-0.028
			l0.028-0.764c1.16-0.057,2.83-0.198,3.934-0.51l0.085,0.085c0.113,0.679,0.198,2.151,0.198,2.745h0.085
			c0.68-1.5,1.67-2.887,3.425-2.887c1.161,0,1.783,0.877,1.783,1.698c0,1.188-0.877,1.585-1.302,1.585s-0.708-0.142-0.821-0.453
			c-0.169-0.594-0.367-0.962-0.99-0.962c-0.821,0-1.5,1.16-1.84,2.35c-0.142,0.48-0.198,0.934-0.198,1.585
			c0,3.142,0,4.415,0.057,5.123c0.028,0.623,0.227,0.764,2.378,0.849l-0.085,0.793c-1.048,0-2.35-0.085-3.595-0.085
			s-2.208,0.085-3.227,0.085l0.085-0.793c1.443-0.057,1.67-0.197,1.755-0.679c0.057-0.595,0.113-1.896,0.113-3.538V140.554z"/>
		<path fill="#FFFFFF" d="M127.092,135.601c0-2.236-0.028-3.538-0.057-4.133c-0.028-0.51-0.198-0.623-0.735-0.68l-1.67-0.17
			l0.057-0.764c0.65,0,2.32,0.085,3.481,0.085c1.302,0,2.858-0.085,4.528-0.113c3.113,0,4.699,0.453,5.859,1.188
			c2.151,1.303,3.425,3.765,3.425,7.274c0,3.736-1.302,7.048-4.812,8.689c-1.303,0.595-3.114,0.906-4.982,0.906
			c-1.387,0-2.773-0.085-4.132-0.085c-1.133,0-3.058,0.085-3.595,0.085l0.028-0.793l1.358-0.085
			c0.793-0.085,1.047-0.282,1.075-0.792c0.057-0.595,0.17-2.293,0.17-4.868V135.601z M129.838,141.403
			c0,3.368,0.028,4.33,0.085,4.981c0.057,0.425,0.312,0.65,1.868,0.65c2.943,0,4.472-0.877,5.435-2.179
			c0.934-1.246,1.585-3.341,1.585-6.454c0-2.773-0.623-4.698-1.613-5.831c-1.104-1.245-2.604-1.84-4.982-1.84
			c-2.094,0-2.235,0.227-2.264,0.595c-0.028,0.425-0.113,1.443-0.113,4.388V141.403z"/>
		<path fill="#FFFFFF" d="M150.553,147.885c-0.849,0-1.896-0.085-3.255-0.085c-1.415,0-2.208,0.085-3.057,0.085l0.028-0.793
			c1.642-0.057,1.84-0.254,1.868-0.764c0.057-0.566,0.113-1.698,0.113-3.368v-3.086c0-1.5-0.028-2.434-0.085-2.887
			c-0.028-0.396-0.312-0.453-1.812-0.396l0.057-0.764c1.33-0.085,3.17-0.198,4.443-0.481c-0.028,0.68-0.085,2.236-0.085,4.387v3.256
			c0,1.783,0.028,2.688,0.085,3.312c0.028,0.595,0.312,0.707,1.755,0.792L150.553,147.885z M147.355,129.826
			c0.934,0,1.443,0.623,1.443,1.528c0,0.906-0.707,1.5-1.585,1.5c-0.765,0-1.415-0.537-1.415-1.472c0-0.905,0.65-1.557,1.528-1.557
			H147.355z"/>
		<path fill="#FFFFFF" d="M160.146,139.817c-0.142-2.15-1.33-3.651-3.142-3.651c-1.273,0-2.095,0.793-2.095,2.01
			c0,0.821,0.425,1.274,1.075,1.613c0.878,0.453,2.689,1.048,3.736,1.558c1.444,0.622,2.038,1.613,2.038,2.887
			c0,2.802-2.632,3.963-5.066,3.963c-1.528,0-3.142-0.453-3.935-0.821c0.028-0.65,0.085-2.547,0.028-4.132l0.708-0.113
			c0.057,0.594,0.198,1.5,0.51,2.235c0.509,1.303,1.642,1.953,3.057,1.953c1.585,0,2.491-0.82,2.491-2.066
			c0-0.679-0.283-1.217-1.02-1.585c-0.962-0.452-2.378-1.047-3.368-1.472c-1.415-0.595-2.265-1.528-2.265-3.085
			c0-2.406,1.925-3.793,4.331-3.793c1.16,0,2.321,0.368,2.745,0.735l0.34-0.962l0.736,0.227c-0.198,1.472-0.227,3.142-0.17,4.331
			L160.146,139.817z"/>
		<path fill="#FFFFFF" d="M174.833,144.375c-0.707,2.321-2.377,3.821-5.18,3.821c-2.038,0-3.425-0.595-4.472-1.812
			c-0.85-1.02-1.331-2.52-1.331-4.444c0-3.623,2.321-6.623,6.397-6.623c2.575,0,4.387,1.188,4.387,3.057c0,1.02-0.679,1.5-1.443,1.5
			c-0.255,0-0.565-0.057-0.707-0.198c-0.17-0.141-0.283-0.367-0.227-0.594c0.028-0.283,0.113-0.595,0.113-0.878
			c0-1.273-0.623-2.066-2.208-2.066c-2.321,0-3.481,2.435-3.481,5.463c0,1.444,0.255,2.718,0.792,3.623
			c0.68,1.104,1.698,1.671,3.001,1.671c1.896,0,2.887-0.935,3.623-2.916L174.833,144.375z"/>
		<path fill="#FFFFFF" d="M182.473,148.196c-2.18,0-3.566-0.708-4.472-1.925c-0.793-0.991-1.218-2.604-1.218-4.274
			c0-3.51,2.01-6.68,5.944-6.68c4.104,0,4.868,3.255,4.84,4.896c0,0.566-0.169,0.963-0.594,1.133
			c-0.481,0.197-1.868,0.339-3.708,0.367c-0.991,0-2.491,0.028-3.708,0c-0.057,1.529,0.34,2.888,0.877,3.68
			c0.623,0.991,1.529,1.501,2.831,1.501c1.727,0,2.773-0.821,3.538-2.746l0.735,0.396
			C186.691,147.092,184.879,148.196,182.473,148.196z M182.53,136.166c-1.953,0-2.83,2.378-2.915,4.671c0.764,0,1.528,0,2.35,0
			c1.33,0,2.065-0.085,2.519-0.17c0.368-0.085,0.566-0.368,0.566-0.991c0-1.5-0.623-3.51-2.491-3.51H182.53z"/>
		<path fill="#FFFFFF" d="M191.104,140.554c0-1.755-0.085-2.943-0.198-3.453c-0.057-0.283-0.198-0.425-0.566-0.425l-1.104-0.028
			l0.028-0.764c1.16-0.057,2.83-0.198,3.934-0.51l0.085,0.085c0.113,0.679,0.198,2.151,0.198,2.745h0.085
			c0.68-1.5,1.67-2.887,3.425-2.887c1.161,0,1.783,0.877,1.783,1.698c0,1.188-0.877,1.585-1.302,1.585s-0.708-0.142-0.821-0.453
			c-0.169-0.594-0.367-0.962-0.99-0.962c-0.821,0-1.5,1.16-1.84,2.35c-0.142,0.48-0.198,0.934-0.198,1.585
			c0,3.142,0,4.415,0.057,5.123c0.028,0.623,0.227,0.764,2.378,0.849l-0.085,0.793c-1.048,0-2.35-0.085-3.595-0.085
			s-2.208,0.085-3.227,0.085l0.085-0.793c1.443-0.057,1.67-0.197,1.755-0.679c0.057-0.595,0.113-1.896,0.113-3.538V140.554z"/>
		<path fill="#FFFFFF" d="M199.875,147.092c1.443-0.057,1.698-0.17,1.755-0.849c0.057-0.85,0.085-1.84,0.085-3.198v-2.52
			c0-1.5-0.028-2.717-0.085-3.453c0-0.396-0.227-0.453-1.698-0.453l0.056-0.764c1.331,0,2.803-0.142,4.076-0.425
			c0.085,0.538,0.17,1.67,0.198,2.123c0.991-1.02,2.35-2.236,4.388-2.236c1.868,0,2.83,0.877,3.255,1.727
			c0.255,0.481,0.368,1.075,0.368,1.755v7.529c0,0.622,0.142,0.65,1.84,0.764l-0.057,0.793c-0.878,0-1.953-0.085-3.199-0.085
			c-1.273,0-2.179,0.085-2.858,0.085l0.028-0.793c1.273-0.057,1.557-0.226,1.585-0.735c0.085-0.595,0.142-1.896,0.142-4.133
			c0-3.566-0.057-3.906-0.283-4.359c-0.34-0.707-0.905-1.104-1.896-1.104c-1.358,0-2.377,0.68-3.028,1.812
			c-0.255,0.425-0.312,0.821-0.312,1.443v3.34c0,1.189,0,2.35,0.057,2.973c0.057,0.566,0.283,0.707,1.727,0.764l-0.057,0.793
			c-0.707,0-2.123-0.085-3.142-0.085c-1.132,0-2.095,0.085-2.943,0.085V147.092z"/>
		<path fill="#FFFFFF" d="M221.554,147.885c-0.849,0-1.896-0.085-3.255-0.085c-1.415,0-2.208,0.085-3.057,0.085l0.028-0.793
			c1.642-0.057,1.84-0.254,1.868-0.764c0.057-0.566,0.113-1.698,0.113-3.368v-3.086c0-1.5-0.028-2.434-0.085-2.887
			c-0.028-0.396-0.312-0.453-1.812-0.396l0.057-0.764c1.33-0.085,3.17-0.198,4.443-0.481c-0.028,0.68-0.085,2.236-0.085,4.387v3.256
			c0,1.783,0.028,2.688,0.085,3.312c0.028,0.595,0.312,0.707,1.755,0.792L221.554,147.885z M218.356,129.826
			c0.934,0,1.443,0.623,1.443,1.528c0,0.906-0.707,1.5-1.585,1.5c-0.765,0-1.415-0.537-1.415-1.472c0-0.905,0.65-1.557,1.528-1.557
			H218.356z"/>
		<path fill="#FFFFFF" d="M222.912,147.092c1.443-0.057,1.698-0.17,1.755-0.849c0.057-0.85,0.085-1.84,0.085-3.198v-2.52
			c0-1.5-0.028-2.717-0.085-3.453c0-0.396-0.227-0.453-1.698-0.453l0.056-0.764c1.331,0,2.803-0.142,4.076-0.425
			c0.085,0.538,0.17,1.67,0.198,2.123c0.991-1.02,2.35-2.236,4.388-2.236c1.868,0,2.83,0.877,3.255,1.727
			c0.255,0.481,0.368,1.075,0.368,1.755v7.529c0,0.622,0.142,0.65,1.84,0.764l-0.057,0.793c-0.878,0-1.953-0.085-3.199-0.085
			c-1.273,0-2.179,0.085-2.858,0.085l0.028-0.793c1.273-0.057,1.557-0.226,1.585-0.735c0.085-0.595,0.142-1.896,0.142-4.133
			c0-3.566-0.057-3.906-0.283-4.359c-0.34-0.707-0.905-1.104-1.896-1.104c-1.358,0-2.377,0.68-3.028,1.812
			c-0.255,0.425-0.312,0.821-0.312,1.443v3.34c0,1.189,0,2.35,0.057,2.973c0.057,0.566,0.283,0.707,1.727,0.764l-0.057,0.793
			c-0.707,0-2.123-0.085-3.142-0.085c-1.132,0-2.095,0.085-2.943,0.085V147.092z"/>
		<path fill="#FFFFFF" d="M241.873,149.271c-0.736,0.312-1.358,0.85-1.358,1.868c0,1.642,1.755,2.604,4.019,2.604
			c3.171,0,4.728-1.557,4.728-3.425c0-1.133-0.821-1.783-1.925-1.783c-2.095,0-3.963,0-4.926-0.028
			c-1.132,0-2.122-0.255-2.858-1.048c-0.425-0.453-0.708-1.019-0.708-1.812c0-1.33,0.991-2.293,1.868-2.83
			c-0.764-0.793-1.047-1.896-1.047-2.888c0-3.057,2.406-4.613,5.038-4.613c1.585,0,2.52,0.538,2.831,0.735
			c0.962-0.764,1.812-1.302,2.66-1.302c0.708,0,1.218,0.51,1.218,0.85c-0.057,0.452-0.623,0.99-0.991,1.16
			c-0.283-0.255-0.708-0.453-1.33-0.453c-0.34,0-0.651,0.085-0.935,0.198c0.821,0.793,1.218,2.01,1.218,3.143
			c0,3.028-2.463,4.5-5.039,4.5c-1.415,0-2.49-0.396-3-0.793c-0.651,0.255-1.132,0.821-1.132,1.529c0,0.764,0.764,1.188,1.642,1.188
			c1.585,0,3.425-0.057,5.831-0.057c0.849,0,1.67,0.227,2.292,0.736c0.736,0.594,1.161,1.585,1.161,2.547
			c0,3.708-3.85,5.491-7.303,5.491c-3.312,0-5.208-1.302-5.208-3.255c0-0.736,0.339-1.33,1.047-1.812
			c0.396-0.312,1.16-0.736,1.84-0.963L241.873,149.271z M244.476,136.166c-1.528,0-2.235,1.416-2.235,3.566
			c0,1.755,0.594,3.595,2.264,3.595c1.698,0,2.236-1.642,2.236-3.566c0-1.727-0.453-3.595-2.236-3.595H244.476z"/>
		<path fill="#FFFFFF" d="M260.153,135.317c0-2.265,0-3.17-0.028-3.793c-0.028-0.453-0.142-0.68-0.622-0.708l-1.84-0.198
			l0.198-0.792c0.537,0,2.009,0.113,3.227,0.113c1.075,0,2.49-0.113,4.358-0.113c2.803,0,3.991,0.538,4.841,1.33
			c0.962,0.906,1.472,2.293,1.472,3.85c0,1.755-0.538,3.113-1.472,4.076c-1.076,1.075-2.576,1.613-4.274,1.613
			c-0.82,0-1.613-0.113-2.066-0.283l0.085-0.82c0.396,0.084,0.935,0.169,1.5,0.169c0.906,0,1.783-0.367,2.293-1.104
			c0.538-0.708,0.906-1.925,0.906-3.481c0-1.443-0.312-2.604-0.906-3.283c-0.708-0.85-1.698-1.161-3.142-1.161
			c-1.415,0-1.585,0.17-1.613,0.481c-0.057,0.878-0.142,2.321-0.142,4.586v3.566v3.538c0,1.642,0.057,2.575,0.085,3.198
			c0.057,0.595,0.227,0.708,1.019,0.793l1.755,0.197l-0.028,0.793c-1.245,0-2.915-0.085-4.415-0.085
			c-1.274,0-2.633,0.085-3.821,0.085l0.057-0.793l1.217-0.113c0.963-0.084,1.188-0.197,1.217-1.047
			c0.085-1.217,0.142-3.198,0.142-5.208V135.317z"/>
		<path fill="#FFFFFF" d="M278.944,148.196c-2.18,0-3.566-0.708-4.472-1.925c-0.793-0.991-1.218-2.604-1.218-4.274
			c0-3.51,2.01-6.68,5.944-6.68c4.104,0,4.868,3.255,4.84,4.896c0,0.566-0.169,0.963-0.594,1.133
			c-0.481,0.197-1.868,0.339-3.708,0.367c-0.991,0-2.491,0.028-3.708,0c-0.057,1.529,0.34,2.888,0.877,3.68
			c0.623,0.991,1.529,1.501,2.831,1.501c1.727,0,2.773-0.821,3.538-2.746l0.735,0.396
			C283.162,147.092,281.35,148.196,278.944,148.196z M279,136.166c-1.953,0-2.83,2.378-2.915,4.671c0.764,0,1.528,0,2.35,0
			c1.33,0,2.065-0.085,2.519-0.17c0.368-0.085,0.566-0.368,0.566-0.991c0-1.5-0.623-3.51-2.491-3.51H279z"/>
		<path fill="#FFFFFF" d="M292.584,135.317c3.765,0,6.029,2.632,6.029,6.34c0,3.935-2.321,6.539-6.228,6.539
			c-4.133,0-6.143-2.718-6.143-6.341c0-3.595,2.265-6.538,6.312-6.538H292.584z M292.386,136.166c-1.132,0-1.868,0.538-2.435,1.388
			c-0.509,0.849-0.82,2.235-0.82,3.878c0,1.698,0.312,3.227,0.82,4.188c0.595,1.133,1.529,1.727,2.661,1.727
			c1.104,0,1.896-0.48,2.435-1.5c0.424-0.849,0.707-2.208,0.707-3.935s-0.312-3.255-0.792-4.132
			c-0.51-0.963-1.331-1.614-2.548-1.614H292.386z"/>
		<path fill="#FFFFFF" d="M299.743,153.603c1.755-0.113,2.038-0.255,2.095-0.793c0.057-0.877,0.17-2.405,0.17-5.718v-6.255
			c0-2.208-0.057-3.227-0.085-3.793c-0.028-0.425-0.34-0.51-1.925-0.425l0.17-0.764c1.358-0.085,2.943-0.198,4.245-0.481
			c0.057,0.679,0.085,1.642,0.142,2.265c1.388-1.388,2.831-2.321,4.614-2.321c1.472,0,2.575,0.623,3.312,1.557
			c0.736,0.962,1.245,2.463,1.245,4.274c0,4.273-2.18,7.048-6.227,7.048c-1.133,0-2.293-0.34-3.001-0.878
			c0,2.435-0.028,3.878,0.085,5.321c0.057,0.708,0.283,0.821,2.293,0.878l-0.142,0.792c-0.764,0-1.896-0.057-3.538-0.057
			c-1.613,0-2.773,0.085-3.595,0.142L299.743,153.603z M307.414,147.29c2.66,0,3.566-2.745,3.566-5.746
			c0-1.33-0.312-2.773-0.85-3.595c-0.481-0.735-1.16-1.188-2.18-1.188c-1.387,0-2.462,0.821-3.085,1.953
			c-0.198,0.312-0.312,0.595-0.312,1.132c-0.028,2.378-0.028,3.623,0,5.181c0.028,0.339,0.113,0.594,0.283,0.849
			c0.566,0.935,1.557,1.415,2.548,1.415H307.414z"/>
		<path fill="#FFFFFF" d="M315.222,129.005c1.812-0.028,3.396-0.198,4.528-0.367c-0.028,1.075-0.113,2.972-0.113,5.688v7.105
			c0,2.943,0.028,4.188,0.057,4.868c0.028,0.622,0.368,0.735,1.896,0.792l-0.085,0.793c-0.99,0-2.292-0.085-3.396-0.085
			c-1.302,0-2.265,0.085-3,0.085l0.028-0.793c1.585-0.028,1.812-0.226,1.84-0.849c0.028-0.538,0.142-2.491,0.142-4.925v-7.077
			c0-2.377,0-3.198-0.057-3.962c-0.028-0.425-0.227-0.51-1.868-0.51L315.222,129.005z"/>
		<path fill="#FFFFFF" d="M328.948,148.196c-2.18,0-3.566-0.708-4.472-1.925c-0.793-0.991-1.218-2.604-1.218-4.274
			c0-3.51,2.01-6.68,5.944-6.68c4.104,0,4.868,3.255,4.84,4.896c0,0.566-0.169,0.963-0.594,1.133
			c-0.481,0.197-1.868,0.339-3.708,0.367c-0.991,0-2.491,0.028-3.708,0c-0.057,1.529,0.34,2.888,0.877,3.68
			c0.623,0.991,1.529,1.501,2.831,1.501c1.727,0,2.773-0.821,3.538-2.746l0.735,0.396
			C333.166,147.092,331.354,148.196,328.948,148.196z M329.004,136.166c-1.953,0-2.83,2.378-2.915,4.671c0.764,0,1.528,0,2.35,0
			c1.33,0,2.065-0.085,2.519-0.17c0.368-0.085,0.566-0.368,0.566-0.991c0-1.5-0.623-3.51-2.491-3.51H329.004z"/>
	</g>
</g>
</svg>
