<?xml version="1.0" standalone="no"?><!-- Generator: Adobe Fireworks CS6, Export SVG Extension by Aaron Beall (http://fireworks.abeall.com) . Version: 0.6.1  --><!DOCTYPE svg PUBLIC "-//W3C//DTD SVG 1.1//EN" "http://www.w3.org/Graphics/SVG/1.1/DTD/svg11.dtd"><svg id="Untitled-Page%201" viewBox="0 0 136 65" style="background-color:#ffffff00" version="1.1"	xmlns="http://www.w3.org/2000/svg" xmlns:xlink="http://www.w3.org/1999/xlink" xml:space="preserve"	x="0px" y="0px" width="136px" height="65px">	<g>		<g>			<path d="M 39.6596 0 L 36.361 3.1709 C 34.2713 5.1627 32.0716 7.1535 30.0921 9.1078 L 30.0921 0 L 26.5728 0 L 26.5728 25 L 30.0918 25 L 30.0918 15.8928 L 39.6596 25 L 44.7181 25 C 40.5765 21.0177 35.7007 16.483 31.5584 12.5368 L 44.7181 0 L 39.6596 0 Z" fill="#222222"/>			<path d="M 46.2799 0 L 46.2799 3.4664 L 52.622 3.4664 L 45.7671 25 L 56.8738 25 L 56.8738 21.498 L 50.5693 21.498 L 57.3883 0 L 46.2799 0 Z" fill="#222222"/>			<path d="M 59.2761 0 L 62.7944 0 L 62.7944 25 L 59.2761 25 L 59.2761 0 Z" fill="#222222"/>			<path d="M 78.2718 1.5493 C 75.779 0.1114 72.8828 0 72.7733 0 L 66.0288 0 L 66.0288 25 L 72.7733 25 C 72.8828 25 75.7425 24.8159 78.2718 23.4882 C 82.6697 20.8332 83.7699 16.0404 83.7699 12.5371 C 83.7699 9.071 82.5242 4.2414 78.2718 1.5493 ZM 76.622 20.3545 C 74.7158 21.4977 72.8095 21.4977 72.7733 21.4977 L 69.5109 21.4977 L 69.5109 3.4664 L 72.7733 3.4664 C 72.8092 3.4664 74.6422 3.4664 76.5482 4.6465 C 79.0784 6.0849 80.2881 8.7393 80.2881 12.5368 C 80.2881 16.2249 79.1153 18.916 76.622 20.3545 Z" fill="#222222"/>			<path d="M 86.3303 25 L 99.5996 25 L 99.5996 21.498 L 89.813 21.498 L 89.813 14.2708 L 99.5996 14.2708 L 99.5996 10.7311 L 89.813 10.7311 L 89.813 3.4664 L 99.5996 3.4664 L 99.5996 0 L 86.3303 0 L 86.3303 25 Z" fill="#222222"/>			<path d="M 122.1206 0 L 122.1206 3.4664 L 127.0683 3.4664 L 127.0683 25 L 130.5154 25 L 130.5154 3.4664 L 135.5 3.4664 L 135.5 0 L 122.1206 0 Z" fill="#222222"/>			<path d="M 117.3174 18.4796 L 105.1104 0.2539 L 102.3243 0.2539 L 102.3243 25 L 105.8074 25 L 105.8074 6.9374 L 117.9843 24.7925 L 120.725 24.7925 L 120.725 0.3193 L 117.3174 0.3193 L 117.3174 18.4796 Z" fill="#222222"/>			<path d="M 12.9262 0 C 5.9621 0 0.5 5.5687 0.5 12.5368 C 0.5 19.4329 5.9621 25 12.9262 25 C 19.7812 25 25.317 19.4326 25.317 12.5368 C 25.317 5.5687 19.7812 0 12.9262 0 ZM 12.9262 21.6078 C 10.015 21.6078 7.4176 20.2101 5.759 18.0572 L 6.4951 18.0572 L 19.3218 18.0572 L 20.0362 18.0572 C 18.3936 20.2101 15.8165 21.6078 12.9262 21.6078 ZM 9.8673 15.0211 C 10.4232 13.8971 11.5774 13.1235 12.9075 13.1235 C 14.2375 13.1235 15.3925 13.8971 15.949 15.0211 L 9.8673 15.0211 ZM 21.491 15.2581 L 21.491 15.0208 L 19.1346 15.0208 C 18.4534 12.1955 15.9235 10.0884 12.9075 10.0884 C 9.8922 10.0884 7.3619 12.1955 6.6819 15.0208 L 4.3249 15.0208 L 4.3249 15.3554 C 4.033 14.4662 3.8723 13.5193 3.8723 12.5365 C 3.8723 7.5224 7.9407 3.3921 12.9259 3.3921 C 17.8749 3.3921 21.9071 7.5224 21.9071 12.5365 C 21.9074 13.4834 21.761 14.3973 21.491 15.2581 Z" fill="#222222"/>		</g>		<g>			<path d="M 20.9312 39.9675 C 21.3273 39.9675 22.2295 40.0087 22.9266 40.0087 L 25.2371 40.0087 C 26.1256 40.0087 26.8773 39.9675 27.1646 39.9131 C 27.1235 40.2836 27.0962 41.5314 27.1372 42.2303 L 26.7675 42.244 C 26.7133 41.8877 26.617 41.4485 26.4666 41.0786 C 26.2619 40.5845 26.0568 40.4473 24.7305 40.4473 L 23.7189 40.4473 C 23.5552 40.4473 23.5142 40.5022 23.5005 40.6669 C 23.4727 41.0786 23.4458 41.6956 23.4458 42.4498 L 23.4458 43.9583 C 23.5967 43.972 24.0471 43.972 24.266 43.972 C 25.496 43.972 25.6874 43.7392 25.8105 42.8066 L 26.1525 42.8066 C 26.0704 43.7392 26.0704 44.8909 26.1246 45.7687 L 25.7695 45.7687 C 25.6596 44.7263 25.5228 44.4248 24.2518 44.4248 C 23.9919 44.4248 23.5822 44.4248 23.4454 44.4523 L 23.4454 45.7691 C 23.4454 46.5504 23.459 47.4144 23.5001 47.8951 C 23.5133 48.1696 23.5958 48.2377 24.839 48.2377 C 26.1378 48.2377 26.5067 48.1558 26.8354 47.7716 C 27.1495 47.4286 27.3952 46.7567 27.5461 46.2078 L 27.8744 46.2627 C 27.8744 46.5778 27.6013 48.3607 27.5325 48.7175 C 27.0957 48.6896 26.2345 48.6626 24.6343 48.6626 L 22.9257 48.6626 C 22.2701 48.6626 21.2858 48.7038 20.8212 48.7038 L 20.8345 48.3195 L 21.6819 48.2372 C 21.9413 48.2103 22.0371 48.1005 22.0513 47.7162 C 22.0923 47.1953 22.106 46.5229 22.106 45.728 L 22.106 42.834 C 22.106 41.8465 22.0923 41.1476 22.0781 40.7492 C 22.0645 40.5022 21.955 40.4199 21.6273 40.3924 L 20.9302 40.338 L 20.9302 39.9675 L 20.9312 39.9675 Z" fill="#222222"/>			<path d="M 28.6393 48.3195 C 29.3364 48.2921 29.4595 48.2372 29.4868 47.9084 C 29.5146 47.4962 29.5279 47.0164 29.5279 46.3587 L 29.5279 45.1375 C 29.5279 44.4106 29.5146 43.821 29.4868 43.4643 C 29.4868 43.2727 29.3774 43.2452 28.6672 43.2452 L 28.694 42.8747 C 29.3369 42.8747 30.0476 42.8061 30.6626 42.6689 C 30.7036 42.9296 30.7446 43.478 30.7583 43.6975 C 31.2366 43.2036 31.8931 42.614 32.8773 42.614 C 33.7795 42.614 34.2441 43.0389 34.4492 43.451 C 34.5723 43.6838 34.6271 43.972 34.6271 44.3013 L 34.6271 47.9495 C 34.6271 48.2509 34.6954 48.2642 35.5156 48.3195 L 35.4882 48.7038 C 35.0638 48.7038 34.545 48.6626 33.9432 48.6626 C 33.3282 48.6626 32.8905 48.7038 32.5627 48.7038 L 32.5764 48.3195 C 33.191 48.2921 33.3282 48.2103 33.3419 47.9633 C 33.3829 47.6751 33.4103 47.0448 33.4103 45.9608 C 33.4103 44.2332 33.3829 44.0681 33.274 43.849 C 33.1094 43.5064 32.8368 43.3138 32.3581 43.3138 C 31.702 43.3138 31.2101 43.6432 30.8956 44.192 C 30.7725 44.3979 30.7451 44.5895 30.7451 44.8909 L 30.7451 46.5092 C 30.7451 47.0855 30.7451 47.6481 30.7725 47.95 C 30.8003 48.2235 30.9092 48.2926 31.6068 48.32 L 31.579 48.7043 C 31.2375 48.7043 30.5536 48.6631 30.0618 48.6631 C 29.5151 48.6631 29.0501 48.7043 28.6403 48.7043 L 28.6403 48.3195 L 28.6393 48.3195 Z" fill="#222222"/>			<path d="M 39.7644 39.5558 C 40.2979 39.5421 41.5142 39.4598 42.048 39.3779 C 42.0344 39.9401 41.9792 41.0374 41.9792 42.4635 L 41.9792 45.6314 C 41.9792 47.0032 41.9929 47.579 42.048 47.9907 C 42.0754 48.223 42.1575 48.2921 42.3621 48.2784 L 43.0045 48.2784 L 42.9224 48.6626 C 42.3754 48.6763 41.2411 48.7587 40.7487 48.8684 C 40.7487 48.5945 40.7624 48.1828 40.7487 47.8947 L 40.7077 47.8947 C 40.1337 48.47 39.5187 48.8542 38.7255 48.8542 C 37.9058 48.8542 37.2761 48.4979 36.8937 47.9628 C 36.5244 47.4551 36.3197 46.742 36.3197 45.9466 C 36.3197 44.1499 37.3314 42.614 39.4088 42.614 C 40.0238 42.614 40.5299 42.7924 40.7624 42.9703 C 40.7624 41.4755 40.7624 40.7076 40.7346 40.2278 C 40.7072 39.9259 40.6251 39.8984 39.7097 39.9259 L 39.7644 39.5558 ZM 37.66 45.7138 C 37.66 46.4136 37.8105 47.1267 38.111 47.5379 C 38.3981 47.95 38.8221 48.1554 39.273 48.1554 C 39.8196 48.1554 40.2847 47.9495 40.6124 47.359 C 40.7218 47.1816 40.7629 46.9753 40.7629 45.2198 C 40.7629 44.0955 40.7492 43.9171 40.6671 43.7662 C 40.4898 43.4369 40.1616 43.0389 39.4371 43.0389 C 38.234 43.0389 37.66 44.2327 37.66 45.6996 L 37.66 45.7138 L 37.66 45.7138 Z" fill="#222222"/>			<path d="M 47.118 42.8066 C 47.5693 42.8066 48.1018 42.7791 48.5126 42.7654 C 48.9087 42.7375 49.2233 42.7105 49.3738 42.6963 C 49.36 43.108 49.319 43.821 49.319 44.6993 L 49.319 46.3175 C 49.319 47.1541 49.3327 47.6888 49.3738 48.0181 C 49.4011 48.2647 49.469 48.3058 50.3444 48.2921 L 50.3033 48.6626 C 49.9751 48.6763 49.5511 48.7038 49.1271 48.7449 C 48.7172 48.7724 48.3616 48.8273 48.1155 48.8684 C 48.1018 48.5121 48.0881 47.95 48.0881 47.5658 C 47.6778 48.1279 46.7897 48.8547 45.655 48.8547 C 44.8618 48.8547 44.4788 48.5254 44.343 48.2514 C 44.2194 48.0456 44.1652 47.7716 44.1652 47.4423 C 44.1783 46.7287 44.2062 45.4535 44.2062 44.5214 C 44.2062 43.9039 44.1925 43.575 44.1783 43.3824 C 44.1652 43.1766 44.0142 43.1633 43.3176 43.1633 L 43.3719 42.7928 C 43.7954 42.7928 44.2609 42.7796 44.6434 42.7384 C 45.0396 42.7105 45.3268 42.6835 45.5319 42.6556 C 45.4772 43.0261 45.422 43.849 45.422 45.4266 C 45.4088 46.6469 45.422 47.3874 45.5041 47.7167 C 45.5729 48.0186 45.805 48.2112 46.2012 48.2112 C 46.9944 48.2112 47.6505 47.6349 47.9509 46.9081 C 48.074 46.6062 48.1013 46.3871 48.1013 46.0852 L 48.1013 44.7546 C 48.1013 44.0969 48.0881 43.6853 48.0603 43.4113 C 48.033 43.2054 47.8966 43.1917 47.1448 43.178 L 47.118 42.8066 Z" fill="#222222"/>			<path d="M 51.7371 45.1516 C 51.7371 44.3013 51.696 43.7255 51.6413 43.4785 C 51.614 43.3412 51.546 43.2727 51.3682 43.2727 L 50.8348 43.2589 L 50.8485 42.8889 C 51.4088 42.8615 52.2153 42.7928 52.7482 42.6419 L 52.7892 42.6831 C 52.8439 43.0119 52.885 43.725 52.885 44.0132 L 52.926 44.0132 C 53.2548 43.2864 53.7325 42.614 54.58 42.614 C 55.1407 42.614 55.4412 43.0389 55.4412 43.4369 C 55.4412 44.0127 55.0176 44.2048 54.8125 44.2048 C 54.6074 44.2048 54.4706 44.1362 54.4159 43.9853 C 54.3343 43.6975 54.2385 43.5192 53.9376 43.5192 C 53.5415 43.5192 53.2133 44.0813 53.0491 44.6581 C 52.9807 44.8904 52.9539 45.1105 52.9539 45.4261 C 52.9539 46.9483 52.9539 47.5653 52.9812 47.9084 C 52.9949 48.2103 53.0906 48.2784 54.1296 48.3195 L 54.0886 48.7038 C 53.5825 48.7038 52.9539 48.6626 52.3525 48.6626 C 51.7512 48.6626 51.2862 48.7038 50.7938 48.7038 L 50.8348 48.3195 C 51.5319 48.2921 51.6413 48.2235 51.6824 47.9907 C 51.7101 47.7021 51.7371 47.0718 51.7371 46.2764 L 51.7371 45.1516 L 51.7371 45.1516 Z" fill="#222222"/>			<path d="M 58.9128 48.7038 C 58.5024 48.7038 57.9969 48.6626 57.3409 48.6626 C 56.6575 48.6626 56.2745 48.7038 55.8642 48.7038 L 55.8779 48.3195 C 56.6707 48.2921 56.7664 48.1965 56.7801 47.9495 C 56.8075 47.6751 56.8344 47.1267 56.8344 46.3175 L 56.8344 44.8223 C 56.8344 44.0955 56.8212 43.6427 56.7933 43.4231 C 56.7801 43.2315 56.6429 43.204 55.9185 43.2315 L 55.9458 42.8615 C 56.5881 42.8203 57.4767 42.7654 58.0917 42.6282 C 58.078 42.9571 58.0507 43.7118 58.0507 44.7537 L 58.0507 46.3313 C 58.0507 47.1953 58.0638 47.6339 58.0917 47.9363 C 58.1053 48.224 58.2421 48.2789 58.9392 48.32 L 58.9128 48.7038 ZM 57.3677 39.9543 C 57.8186 39.9543 58.0648 40.2561 58.0648 40.6943 C 58.0648 41.1334 57.7233 41.4211 57.2989 41.4211 C 56.9296 41.4211 56.616 41.1609 56.616 40.708 C 56.616 40.2694 56.9296 39.9538 57.3536 39.9538 L 57.3677 39.9538 L 57.3677 39.9543 Z" fill="#222222"/>			<path d="M 59.5679 48.3195 C 60.2649 48.2921 60.388 48.2372 60.4154 47.9084 C 60.4432 47.4962 60.4564 47.0164 60.4564 46.3587 L 60.4564 45.1375 C 60.4564 44.4106 60.4432 43.821 60.4154 43.4643 C 60.4154 43.2727 60.306 43.2452 59.5957 43.2452 L 59.6226 42.8747 C 60.2654 42.8747 60.9761 42.8061 61.5911 42.6689 C 61.6321 42.9296 61.6732 43.478 61.6869 43.6975 C 62.1651 43.2036 62.8216 42.614 63.8058 42.614 C 64.7081 42.614 65.1726 43.0389 65.3778 43.451 C 65.5009 43.6838 65.5556 43.972 65.5556 44.3013 L 65.5556 47.9495 C 65.5556 48.2509 65.624 48.2642 66.4441 48.3195 L 66.4167 48.7038 C 65.9928 48.7038 65.4735 48.6626 64.8717 48.6626 C 64.2567 48.6626 63.8195 48.7038 63.4913 48.7038 L 63.505 48.3195 C 64.1195 48.2921 64.2567 48.2103 64.2704 47.9633 C 64.3115 47.6751 64.3388 47.0448 64.3388 45.9608 C 64.3388 44.2332 64.3115 44.0681 64.2025 43.849 C 64.0379 43.5064 63.7653 43.3138 63.2866 43.3138 C 62.6306 43.3138 62.1387 43.6432 61.8241 44.192 C 61.701 44.3979 61.6736 44.5895 61.6736 44.8909 L 61.6736 46.5092 C 61.6736 47.0855 61.6736 47.6481 61.701 47.95 C 61.7288 48.2235 61.8378 48.2926 62.5353 48.32 L 62.5075 48.7043 C 62.166 48.7043 61.4822 48.6631 60.9903 48.6631 C 60.4437 48.6631 59.9786 48.7043 59.5688 48.7043 L 59.5688 48.3195 L 59.5679 48.3195 Z" fill="#222222"/>			<path d="M 68.7249 49.3757 C 68.3698 49.5271 68.0693 49.7878 68.0693 50.2809 C 68.0693 51.0768 68.9169 51.5428 70.0101 51.5428 C 71.5414 51.5428 72.2936 50.7881 72.2936 49.8829 C 72.2936 49.334 71.897 49.0194 71.3636 49.0194 C 70.352 49.0194 69.4498 49.0194 68.9847 49.0057 C 68.4381 49.0057 67.9599 48.8822 67.6048 48.4979 C 67.3992 48.2784 67.2629 48.0039 67.2629 47.6198 C 67.2629 46.9753 67.7411 46.5087 68.1646 46.2485 C 67.7958 45.8642 67.6591 45.33 67.6591 44.8493 C 67.6591 43.3682 68.8211 42.614 70.0921 42.614 C 70.8575 42.614 71.3094 42.8747 71.4594 42.9703 C 71.9239 42.6003 72.3347 42.3396 72.7441 42.3396 C 73.086 42.3396 73.3322 42.5865 73.3322 42.7512 C 73.3048 42.9703 73.0313 43.231 72.8535 43.3134 C 72.7172 43.1898 72.5115 43.0938 72.2116 43.0938 C 72.047 43.0938 71.897 43.135 71.7598 43.1898 C 72.1564 43.5741 72.3479 44.1636 72.3479 44.7121 C 72.3479 46.1798 71.1584 46.8929 69.9143 46.8929 C 69.231 46.8929 68.7122 46.7013 68.4655 46.5087 C 68.1514 46.6322 67.9189 46.9066 67.9189 47.2497 C 67.9189 47.6198 68.2881 47.8256 68.7122 47.8256 C 69.4776 47.8256 70.3661 47.7976 71.5282 47.7976 C 71.938 47.7976 72.3347 47.9079 72.6351 48.1544 C 72.9902 48.4421 73.1954 48.9224 73.1954 49.3885 C 73.1954 51.1851 71.3362 52.0491 69.6686 52.0491 C 68.0693 52.0491 67.1534 51.4179 67.1534 50.472 C 67.1534 50.1153 67.3171 49.8276 67.6591 49.5938 C 67.8505 49.4429 68.2193 49.2371 68.5475 49.1273 L 68.7249 49.3757 ZM 69.9822 43.0261 C 69.2441 43.0261 68.9027 43.7122 68.9027 44.7537 C 68.9027 45.604 69.1895 46.4959 69.9959 46.4959 C 70.816 46.4959 71.0759 45.7 71.0759 44.7679 C 71.0759 43.9313 70.8571 43.0261 69.9959 43.0261 L 69.9822 43.0261 Z" fill="#222222"/>			<path d="M 83.4862 42.9031 C 83.4042 41.2015 82.5977 40.2013 81.121 40.2013 C 80.2872 40.2013 79.5901 40.4748 79.0166 41.2569 C 78.4832 42.0121 78.2234 43.1085 78.2234 44.3567 C 78.2234 45.4951 78.4828 46.5645 78.9478 47.2644 C 79.5081 48.1147 80.2603 48.4435 81.1899 48.4435 C 82.1053 48.4435 82.625 48.1289 82.6797 47.6481 C 82.7344 47.2365 82.7344 46.4959 82.7344 45.8647 C 82.7344 45.0967 82.6519 45.0012 81.9553 44.9463 L 81.2582 44.8914 L 81.2446 44.5077 C 81.6964 44.5077 82.7071 44.5488 83.2952 44.5488 C 83.8833 44.5488 84.5799 44.5356 84.9218 44.5077 L 84.9218 44.8777 C 84.2252 44.9737 84.1154 45.0291 84.088 45.3579 C 84.0333 45.9201 84.0602 46.4146 84.0602 46.8253 C 84.0602 47.5246 84.1012 47.9088 84.1559 48.2108 C 83.8418 48.2926 83.1716 48.4984 82.8024 48.6077 C 82.3241 48.7449 81.6544 48.8822 80.9843 48.8822 C 79.3298 48.8822 78.2776 48.4431 77.5391 47.4967 C 76.9656 46.7567 76.6642 45.6726 76.6642 44.4248 C 76.6642 42.6007 77.4023 41.1746 78.7011 40.4061 C 79.4255 39.9538 80.1773 39.7891 81.1342 39.7891 C 82.3784 39.7891 83.1575 40.215 83.4579 40.5296 L 83.7583 39.8303 L 84.0729 39.9405 C 83.9772 40.4203 83.8267 41.8744 83.8819 42.9031 L 83.4862 42.9031 Z" fill="#222222"/>			<path d="M 88.9792 42.6145 C 90.7973 42.6145 91.891 43.8902 91.891 45.6868 C 91.891 47.5932 90.77 48.8547 88.883 48.8547 C 86.8871 48.8547 85.9165 47.5379 85.9165 45.7824 C 85.9165 44.0406 87.0101 42.6145 88.9646 42.6145 L 88.9792 42.6145 ZM 88.8834 43.0261 C 88.3369 43.0261 87.9812 43.2869 87.7077 43.6985 C 87.4615 44.1097 87.3115 44.7816 87.3115 45.5775 C 87.3115 46.4004 87.462 47.1414 87.7077 47.607 C 87.9949 48.1558 88.4458 48.4435 88.9929 48.4435 C 89.5258 48.4435 89.9083 48.2112 90.1686 47.7167 C 90.3733 47.3055 90.5101 46.6469 90.5101 45.8103 C 90.5101 44.9733 90.3591 44.2332 90.1276 43.8083 C 89.8814 43.3412 89.4847 43.0261 88.8971 43.0261 L 88.8834 43.0261 Z" fill="#222222"/>			<path d="M 96.0861 42.6145 C 97.9042 42.6145 98.9979 43.8902 98.9979 45.6868 C 98.9979 47.5932 97.8768 48.8547 95.9899 48.8547 C 93.994 48.8547 93.0233 47.5379 93.0233 45.7824 C 93.0233 44.0406 94.1171 42.6145 96.0714 42.6145 L 96.0861 42.6145 ZM 95.9904 43.0261 C 95.4437 43.0261 95.0881 43.2869 94.8146 43.6985 C 94.5688 44.1097 94.4184 44.7816 94.4184 45.5775 C 94.4184 46.4004 94.5693 47.1414 94.8146 47.607 C 95.1018 48.1558 95.5531 48.4435 96.0997 48.4435 C 96.6327 48.4435 97.0151 48.2112 97.2755 47.7167 C 97.4802 47.3055 97.6169 46.6469 97.6169 45.8103 C 97.6169 44.9733 97.4665 44.2332 97.2345 43.8083 C 96.9883 43.3412 96.5917 43.0261 96.004 43.0261 L 95.9904 43.0261 Z" fill="#222222"/>			<path d="M 103.5623 39.5558 C 104.0952 39.5421 105.3115 39.4598 105.8453 39.3779 C 105.8317 39.9401 105.777 41.0374 105.777 42.4635 L 105.777 45.6314 C 105.777 47.0032 105.7902 47.579 105.8453 47.9907 C 105.8727 48.223 105.9548 48.2921 106.1599 48.2784 L 106.8022 48.2784 L 106.7197 48.6626 C 106.1727 48.6763 105.0389 48.7587 104.546 48.8684 C 104.546 48.5945 104.5597 48.1828 104.546 47.8947 L 104.505 47.8947 C 103.9315 48.47 103.316 48.8542 102.5233 48.8542 C 101.7031 48.8542 101.074 48.4979 100.6915 47.9628 C 100.3217 47.4551 100.117 46.742 100.117 45.9466 C 100.117 44.1499 101.1292 42.614 103.2066 42.614 C 103.8212 42.614 104.3276 42.7924 104.5597 42.9703 C 104.5597 41.4755 104.5597 40.7076 104.5323 40.2278 C 104.5045 39.9259 104.4225 39.8984 103.5075 39.9259 L 103.5623 39.5558 ZM 101.4569 45.7138 C 101.4569 46.4136 101.6074 47.1267 101.9078 47.5379 C 102.1954 47.95 102.6194 48.1554 103.0698 48.1554 C 103.6165 48.1554 104.0815 47.9495 104.4097 47.359 C 104.5187 47.1816 104.5597 46.9753 104.5597 45.2198 C 104.5597 44.0955 104.546 43.9171 104.464 43.7662 C 104.2871 43.4369 103.9584 43.0389 103.234 43.0389 C 102.0309 43.0389 101.4569 44.2327 101.4569 45.6996 L 101.4569 45.7138 Z" fill="#222222"/>			<path d="M 111.2836 44.7949 C 111.2152 43.7534 110.6413 43.0261 109.7664 43.0261 C 109.1514 43.0261 108.7548 43.4104 108.7548 43.9999 C 108.7548 44.3979 108.96 44.6174 109.2736 44.7816 C 109.6976 45.0012 110.5724 45.2893 111.078 45.5363 C 111.7751 45.8377 112.0623 46.318 112.0623 46.935 C 112.0623 48.2931 110.7913 48.8557 109.6155 48.8557 C 108.8779 48.8557 108.0983 48.6361 107.7153 48.4577 C 107.729 48.1426 107.7563 47.2237 107.729 46.4557 L 108.0709 46.4008 C 108.0983 46.6885 108.1662 47.1276 108.3171 47.4839 C 108.5629 48.1151 109.1099 48.4298 109.7933 48.4298 C 110.5587 48.4298 110.9964 48.0328 110.9964 47.429 C 110.9964 47.1002 110.8596 46.8395 110.504 46.6611 C 110.039 46.442 109.3557 46.1538 108.8774 45.9475 C 108.194 45.6594 107.7833 45.2075 107.7833 44.4528 C 107.7833 43.2873 108.7133 42.6149 109.8749 42.6149 C 110.4352 42.6149 110.996 42.7933 111.2006 42.9713 L 111.3647 42.5052 L 111.7203 42.6149 C 111.6246 43.3285 111.611 44.1376 111.6383 44.713 L 111.2836 44.7949 Z" fill="#222222"/>			<path d="M 6.5405 52.9189 C 6.9777 52.9189 7.8115 52.96 8.6454 52.96 L 10.6002 52.96 C 12.1722 52.96 12.6919 52.9051 13.0465 52.864 C 12.9371 53.8377 12.9645 54.8664 12.9781 55.2502 L 12.623 55.2781 C 12.582 54.9488 12.4999 54.5101 12.3632 54.0985 C 12.1859 53.5908 11.926 53.3849 10.5314 53.3849 L 9.3698 53.3849 C 9.2194 53.3849 9.1104 53.4124 9.0967 53.5766 C 9.083 53.7138 9.0557 54.3033 9.0557 55.4555 L 9.0557 57.0605 C 9.2066 57.0743 9.7801 57.0743 10.122 57.0743 C 11.2973 57.0743 11.4888 56.8959 11.6529 55.8398 L 11.9944 55.8814 C 11.8991 56.7317 11.926 58.446 11.9944 58.9395 L 11.6255 58.9395 C 11.4614 57.856 11.4067 57.5271 10.081 57.5271 C 9.7527 57.5271 9.1788 57.5271 9.0557 57.5408 L 9.0557 59.0077 C 9.0557 60.0913 9.083 60.5304 9.0967 60.7911 C 9.1104 61.0239 9.1924 61.1474 9.4518 61.1753 C 9.6707 61.1881 10.122 61.2572 10.4635 61.2704 L 10.4225 61.6551 C 9.9442 61.6551 9.1104 61.6135 8.4539 61.6135 C 7.8394 61.6135 6.9777 61.6551 6.5132 61.6551 L 6.4995 61.2704 L 7.2786 61.2018 C 7.5248 61.1881 7.6332 61.0788 7.6611 60.8455 C 7.6885 60.5573 7.7153 59.8717 7.7153 58.816 L 7.7153 55.5521 C 7.7153 54.3999 7.7021 53.8926 7.688 53.6868 C 7.6743 53.4947 7.5786 53.3849 7.4012 53.3712 L 6.5537 53.3026 L 6.5405 52.9189 Z" fill="#222222"/>			<path d="M 16.5323 55.5658 C 18.3504 55.5658 19.4436 56.841 19.4436 58.6377 C 19.4436 60.5441 18.3231 61.8061 16.4361 61.8061 C 14.4402 61.8061 13.4691 60.4892 13.4691 58.7337 C 13.4691 56.9919 14.5633 55.5658 16.5177 55.5658 L 16.5323 55.5658 ZM 16.4361 55.977 C 15.8895 55.977 15.5339 56.2377 15.2599 56.6498 C 15.0142 57.061 14.8642 57.7325 14.8642 58.5288 C 14.8642 59.3512 15.0146 60.0922 15.2599 60.5578 C 15.5475 61.1067 15.9984 61.3949 16.545 61.3949 C 17.0785 61.3949 17.4609 61.1621 17.7213 60.6681 C 17.926 60.2564 18.0627 59.5982 18.0627 58.7612 C 18.0627 57.9246 17.9118 57.1841 17.6802 56.7591 C 17.4336 56.2926 17.0374 55.977 16.4493 55.977 L 16.4361 55.977 Z" fill="#222222"/>			<path d="M 21.2198 58.1035 C 21.2198 57.2527 21.1783 56.6773 21.124 56.4303 C 21.0962 56.2931 21.0283 56.2245 20.8505 56.2245 L 20.3176 56.2108 L 20.3307 55.8402 C 20.8911 55.8128 21.6975 55.7447 22.231 55.5932 L 22.272 55.6344 C 22.3267 55.9637 22.3677 56.6768 22.3677 56.9645 L 22.4088 56.9645 C 22.737 56.2377 23.2152 55.5658 24.0627 55.5658 C 24.6235 55.5658 24.9239 55.9907 24.9239 56.3886 C 24.9239 56.964 24.5004 57.1566 24.2947 57.1566 C 24.0896 57.1566 23.9528 57.0875 23.8986 56.937 C 23.817 56.6494 23.7213 56.471 23.4203 56.471 C 23.0237 56.471 22.6959 57.0331 22.5318 57.6095 C 22.463 57.8423 22.4361 58.0623 22.4361 58.3774 C 22.4361 59.9001 22.4361 60.5166 22.4634 60.8597 C 22.4771 61.1616 22.5733 61.2297 23.6118 61.2714 L 23.5708 61.6556 C 23.0648 61.6556 22.4361 61.614 21.8348 61.614 C 21.2335 61.614 20.7684 61.6556 20.2765 61.6556 L 20.3176 61.2714 C 21.0142 61.2434 21.124 61.1758 21.165 60.942 C 21.1924 60.6539 21.2198 60.0236 21.2198 59.2277 L 21.2198 58.1035 Z" fill="#222222"/>			<path d="M 29.3779 55.7035 C 29.3779 54.6199 29.3642 53.9892 29.3505 53.701 C 29.3369 53.4535 29.2548 53.3991 28.9954 53.3712 L 28.189 53.2889 L 28.2163 52.9189 C 28.5304 52.9189 29.3369 52.96 29.8976 52.96 C 30.5263 52.96 31.2776 52.9189 32.084 52.9051 C 33.5876 52.9051 34.3535 53.1247 34.9138 53.481 C 35.9528 54.1122 36.5677 55.3051 36.5677 57.0052 C 36.5677 58.8156 35.9391 60.4201 34.2441 61.2155 C 33.6145 61.5037 32.7401 61.6542 31.8379 61.6542 C 31.1682 61.6542 30.499 61.613 29.8424 61.613 C 29.2953 61.613 28.3658 61.6542 28.1064 61.6542 L 28.1196 61.2699 L 28.7756 61.2288 C 29.1586 61.1876 29.2812 61.0925 29.2949 60.845 C 29.3223 60.5569 29.377 59.734 29.377 58.4867 L 29.377 55.7035 L 29.3779 55.7035 ZM 30.7041 58.5146 C 30.7041 60.1466 30.7178 60.6127 30.7451 60.9283 C 30.7725 61.1341 30.8956 61.243 31.6473 61.243 C 33.0684 61.243 33.8069 60.8181 34.2719 60.1873 C 34.7233 59.5835 35.0374 58.5686 35.0374 57.0601 C 35.0374 55.7162 34.7365 54.7836 34.2582 54.2347 C 33.7253 53.6314 33.0009 53.3433 31.8525 53.3433 C 30.8413 53.3433 30.7729 53.4531 30.7593 53.6314 C 30.7456 53.8373 30.7046 54.3308 30.7046 55.7574 L 30.7046 58.5146 L 30.7041 58.5146 Z" fill="#222222"/>			<path d="M 40.7081 61.6556 C 40.2983 61.6556 39.7922 61.614 39.1362 61.614 C 38.4529 61.614 38.0699 61.6556 37.6596 61.6556 L 37.6733 61.2709 C 38.4666 61.2434 38.5618 61.1479 38.5755 60.9009 C 38.6028 60.6269 38.6302 60.078 38.6302 59.2689 L 38.6302 57.7737 C 38.6302 57.0468 38.6165 56.5945 38.5892 56.3749 C 38.5755 56.1828 38.4382 56.1554 37.7138 56.1828 L 37.7416 55.8128 C 38.3835 55.7716 39.2725 55.7167 39.8871 55.58 C 39.8738 55.9093 39.846 56.6631 39.846 57.7055 L 39.846 59.2831 C 39.846 60.1471 39.8597 60.5857 39.8871 60.8876 C 39.9008 61.1763 40.038 61.2302 40.7346 61.2718 L 40.7081 61.6556 ZM 39.1636 52.9051 C 39.6149 52.9051 39.8607 53.207 39.8607 53.6456 C 39.8607 54.0847 39.5192 54.3724 39.0952 54.3724 C 38.7255 54.3724 38.4118 54.1122 38.4118 53.6589 C 38.4118 53.2207 38.7255 52.9046 39.1499 52.9046 L 39.1636 52.9046 L 39.1636 52.9051 Z" fill="#222222"/>			<path d="M 45.3409 57.7462 C 45.2725 56.7043 44.6985 55.977 43.8237 55.977 C 43.2087 55.977 42.8121 56.3612 42.8121 56.9513 C 42.8121 57.3487 43.0172 57.5683 43.3308 57.7325 C 43.7548 57.952 44.6297 58.2402 45.1353 58.4877 C 45.8328 58.7891 46.1196 59.2689 46.1196 59.8864 C 46.1196 61.2439 44.8485 61.8065 43.6728 61.8065 C 42.9352 61.8065 42.1556 61.587 41.7726 61.4086 C 41.7863 61.0939 41.8137 60.1745 41.7863 59.4066 L 42.1282 59.3517 C 42.1556 59.6399 42.2235 60.0785 42.3744 60.4348 C 42.6201 61.066 43.1672 61.3811 43.8506 61.3811 C 44.616 61.3811 45.0537 60.9837 45.0537 60.3799 C 45.0537 60.0511 44.9169 59.7903 44.5609 59.6119 C 44.0963 59.3929 43.4124 59.1047 42.9347 58.8989 C 42.2513 58.6107 41.8405 58.1583 41.8405 57.4041 C 41.8405 56.2382 42.7701 55.5663 43.9321 55.5663 C 44.4924 55.5663 45.0532 55.7447 45.2579 55.9226 L 45.422 55.456 L 45.7776 55.5663 C 45.6819 56.2793 45.6677 57.0885 45.6956 57.6648 L 45.3409 57.7462 Z" fill="#222222"/>			<path d="M 52.4341 59.9545 C 52.0927 61.0793 51.2862 61.8061 49.9321 61.8061 C 48.9479 61.8061 48.2782 61.5179 47.7726 60.9283 C 47.3623 60.4338 47.1298 59.707 47.1298 58.7749 C 47.1298 57.0194 48.2508 55.5658 50.2194 55.5658 C 51.4626 55.5658 52.3379 56.1412 52.3379 57.0468 C 52.3379 57.5413 52.0101 57.7737 51.6409 57.7737 C 51.5178 57.7737 51.3682 57.7462 51.2994 57.678 C 51.2173 57.6095 51.1631 57.5002 51.1899 57.3899 C 51.2036 57.2527 51.2447 57.1017 51.2447 56.9645 C 51.2447 56.348 50.9438 55.9637 50.1783 55.9637 C 49.0573 55.9637 48.497 57.1434 48.497 58.6107 C 48.497 59.3101 48.6201 59.9276 48.8795 60.3662 C 49.2078 60.9009 49.6996 61.1758 50.3288 61.1758 C 51.2447 61.1758 51.7229 60.7225 52.0785 59.7629 L 52.4341 59.9545 Z" fill="#222222"/>			<path d="M 56.1236 61.8061 C 55.0709 61.8061 54.4017 61.463 53.9641 60.8734 C 53.5811 60.3932 53.3759 59.6115 53.3759 58.8023 C 53.3759 57.1017 54.3466 55.5658 56.2462 55.5658 C 58.2285 55.5658 58.5973 57.1429 58.5836 57.9378 C 58.5836 58.2123 58.502 58.4048 58.2969 58.4872 C 58.0648 58.5823 57.3947 58.6514 56.5061 58.6646 C 56.0274 58.6646 55.303 58.6783 54.7153 58.6646 C 54.688 59.4056 54.8795 60.0643 55.1389 60.448 C 55.4398 60.9278 55.8774 61.1753 56.5061 61.1753 C 57.3404 61.1753 57.8455 60.7774 58.2148 59.8447 L 58.5699 60.0364 C 58.1605 61.2709 57.2857 61.8061 56.1236 61.8061 ZM 56.1509 55.977 C 55.2082 55.977 54.7847 57.1292 54.7432 58.2402 C 55.1124 58.2402 55.4813 58.2402 55.8784 58.2402 C 56.5207 58.2402 56.8754 58.199 57.0947 58.1578 C 57.2725 58.1167 57.3682 57.9795 57.3682 57.678 C 57.3682 56.9513 57.0673 55.977 56.1651 55.977 L 56.1509 55.977 Z" fill="#222222"/>			<path d="M 60.2918 58.1035 C 60.2918 57.2527 60.2508 56.6773 60.196 56.4303 C 60.1687 56.2931 60.1008 56.2245 59.923 56.2245 L 59.3896 56.2108 L 59.4033 55.8402 C 59.9636 55.8128 60.77 55.7447 61.303 55.5932 L 61.3445 55.6344 C 61.3987 55.9637 61.4398 56.6768 61.4398 56.9645 L 61.4808 56.9645 C 61.8095 56.2377 62.2872 55.5658 63.1353 55.5658 C 63.6955 55.5658 63.9959 55.9907 63.9959 56.3886 C 63.9959 56.964 63.5724 57.1566 63.3672 57.1566 C 63.1621 57.1566 63.0253 57.0875 62.9706 56.937 C 62.889 56.6494 62.7938 56.471 62.4929 56.471 C 62.0963 56.471 61.7684 57.0331 61.6039 57.6095 C 61.5355 57.8423 61.5086 58.0623 61.5086 58.3774 C 61.5086 59.9001 61.5086 60.5166 61.5359 60.8597 C 61.5496 61.1616 61.6458 61.2297 62.6843 61.2714 L 62.6433 61.6556 C 62.1373 61.6556 61.5086 61.614 60.9073 61.614 C 60.306 61.614 59.8409 61.6556 59.3486 61.6556 L 59.3896 61.2714 C 60.0867 61.2434 60.1965 61.1758 60.2375 60.942 C 60.2649 60.6539 60.2918 60.0236 60.2918 59.2277 L 60.2918 58.1035 L 60.2918 58.1035 Z" fill="#222222"/>			<path d="M 64.528 61.2709 C 65.2245 61.2434 65.3476 61.1886 65.3754 60.8597 C 65.4028 60.448 65.4164 59.9682 65.4164 59.3101 L 65.4164 58.0893 C 65.4164 57.3625 65.4028 56.7729 65.3754 56.4161 C 65.3754 56.2245 65.2655 56.1966 64.5553 56.1966 L 64.5822 55.8265 C 65.225 55.8265 65.9362 55.7574 66.5507 55.6207 C 66.5917 55.881 66.6328 56.4298 66.6465 56.6494 C 67.1251 56.1549 67.7812 55.5658 68.7654 55.5658 C 69.6677 55.5658 70.1322 55.9907 70.3373 56.4024 C 70.4609 56.6357 70.5151 56.9233 70.5151 57.2527 L 70.5151 60.9009 C 70.5151 61.2023 70.584 61.216 71.4037 61.2714 L 71.3763 61.6556 C 70.9524 61.6556 70.4331 61.614 69.8313 61.614 C 69.2168 61.614 68.7791 61.6556 68.4514 61.6556 L 68.4645 61.2714 C 69.0795 61.2434 69.2168 61.1616 69.23 60.9151 C 69.271 60.6269 69.2988 59.9962 69.2988 58.9126 C 69.2988 57.1845 69.271 57.0199 69.1621 56.8003 C 68.9979 56.4577 68.7249 56.2656 68.2466 56.2656 C 67.5906 56.2656 67.0983 56.5949 66.7842 57.1434 C 66.6611 57.3492 66.6332 57.5413 66.6332 57.8427 L 66.6332 59.461 C 66.6332 60.0368 66.6332 60.5995 66.6611 60.9013 C 66.6884 61.1758 66.7979 61.2439 67.4949 61.2718 L 67.4675 61.6561 C 67.1261 61.6561 66.4423 61.6149 65.9498 61.6149 C 65.4033 61.6149 64.9382 61.6561 64.5289 61.6561 L 64.5289 61.2709 L 64.528 61.2709 Z" fill="#222222"/>			<path d="M 74.9974 61.6556 C 74.5876 61.6556 74.082 61.614 73.4255 61.614 C 72.7422 61.614 72.3592 61.6556 71.9493 61.6556 L 71.9626 61.2709 C 72.7559 61.2434 72.8511 61.1479 72.8648 60.9009 C 72.8922 60.6269 72.9195 60.078 72.9195 59.2689 L 72.9195 57.7737 C 72.9195 57.0468 72.9058 56.5945 72.8785 56.3749 C 72.8648 56.1828 72.7275 56.1554 72.0031 56.1828 L 72.0309 55.8128 C 72.6733 55.7716 73.5618 55.7167 74.1764 55.58 C 74.1631 55.9093 74.1354 56.6631 74.1354 57.7055 L 74.1354 59.2831 C 74.1354 60.1471 74.149 60.5857 74.1764 60.8876 C 74.1901 61.1763 74.3273 61.2302 75.0239 61.2718 L 74.9974 61.6556 ZM 73.4529 52.9051 C 73.9042 52.9051 74.15 53.207 74.15 53.6456 C 74.15 54.0847 73.8085 54.3724 73.3845 54.3724 C 73.0148 54.3724 72.7012 54.1122 72.7012 53.6589 C 72.7012 53.2207 73.0148 52.9046 73.4392 52.9046 L 73.4529 52.9046 L 73.4529 52.9051 Z" fill="#222222"/>			<path d="M 75.6535 61.2709 C 76.3501 61.2434 76.4731 61.1886 76.501 60.8597 C 76.5283 60.448 76.5421 59.9682 76.5421 59.3101 L 76.5421 58.0893 C 76.5421 57.3625 76.5283 56.7729 76.501 56.4161 C 76.501 56.2245 76.3911 56.1966 75.6808 56.1966 L 75.7078 55.8265 C 76.3506 55.8265 77.0618 55.7574 77.6763 55.6207 C 77.7173 55.881 77.7584 56.4298 77.772 56.6494 C 78.2507 56.1549 78.9067 55.5658 79.891 55.5658 C 80.7932 55.5658 81.2578 55.9907 81.463 56.4024 C 81.5861 56.6357 81.6407 56.9233 81.6407 57.2527 L 81.6407 60.9009 C 81.6407 61.2023 81.7096 61.216 82.5293 61.2714 L 82.502 61.6556 C 82.0779 61.6556 81.5587 61.614 80.9569 61.614 C 80.3423 61.614 79.9047 61.6556 79.5769 61.6556 L 79.5901 61.2714 C 80.2051 61.2434 80.3423 61.1616 80.3556 60.9151 C 80.3966 60.6269 80.4244 59.9962 80.4244 58.9126 C 80.4244 57.1845 80.3966 57.0199 80.2877 56.8003 C 80.1235 56.4577 79.8505 56.2656 79.3718 56.2656 C 78.7162 56.2656 78.2238 56.5949 77.9097 57.1434 C 77.7866 57.3492 77.7588 57.5413 77.7588 57.8427 L 77.7588 59.461 C 77.7588 60.0368 77.7588 60.5995 77.7866 60.9013 C 77.814 61.1758 77.923 61.2439 78.6205 61.2718 L 78.5931 61.6561 C 78.2516 61.6561 77.5678 61.6149 77.0754 61.6149 C 76.5288 61.6149 76.0638 61.6561 75.6544 61.6561 L 75.6544 61.2709 L 75.6535 61.2709 Z" fill="#222222"/>			<path d="M 84.8105 62.327 C 84.4549 62.478 84.1545 62.7387 84.1545 63.2322 C 84.1545 64.0276 85.002 64.4937 86.0957 64.4937 C 87.6271 64.4937 88.3788 63.7394 88.3788 62.8343 C 88.3788 62.2854 87.9822 61.9702 87.4492 61.9702 C 86.4376 61.9702 85.5354 61.9702 85.0704 61.9565 C 84.5233 61.9565 84.0455 61.833 83.6899 61.4488 C 83.4848 61.2292 83.348 60.9553 83.348 60.5711 C 83.348 59.9266 83.8267 59.4601 84.2502 59.1998 C 83.881 58.8156 83.7446 58.2809 83.7446 57.8006 C 83.7446 56.3191 84.9063 55.5653 86.1777 55.5653 C 86.9432 55.5653 87.3945 55.826 87.545 55.9212 C 88.0095 55.5511 88.4199 55.2904 88.8292 55.2904 C 89.1711 55.2904 89.4178 55.5374 89.4178 55.7025 C 89.39 55.9212 89.1169 56.1819 88.9391 56.2642 C 88.8023 56.1407 88.5972 56.0451 88.2968 56.0451 C 88.1326 56.0451 87.9822 56.0863 87.845 56.1407 C 88.2416 56.5249 88.4335 57.115 88.4335 57.6638 C 88.4335 59.1307 87.2441 59.8443 85.9999 59.8443 C 85.3166 59.8443 84.7973 59.6522 84.5511 59.4601 C 84.2366 59.5835 84.0045 59.8575 84.0045 60.2006 C 84.0045 60.5711 84.3733 60.7764 84.7973 60.7764 C 85.5627 60.7764 86.4513 60.749 87.6134 60.749 C 88.0232 60.749 88.4199 60.8588 88.7203 61.1053 C 89.0759 61.3934 89.281 61.8733 89.281 62.3393 C 89.281 64.136 87.4214 65 85.7542 65 C 84.1545 65 83.2391 64.3693 83.2391 63.4229 C 83.2391 63.0661 83.4027 62.7784 83.7446 62.5451 C 83.9357 62.3937 84.3049 62.1884 84.6332 62.0781 L 84.8105 62.327 ZM 86.0674 55.977 C 85.3293 55.977 84.9883 56.6631 84.9883 57.705 C 84.9883 58.5553 85.2751 59.4468 86.0815 59.4468 C 86.9017 59.4468 87.1616 58.6514 87.1616 57.7192 C 87.1616 56.8822 86.9427 55.977 86.0815 55.977 L 86.0674 55.977 Z" fill="#222222"/>			<path d="M 93.6384 55.5658 C 93.6384 54.4685 93.6384 54.0299 93.6251 53.728 C 93.6115 53.5084 93.5563 53.3987 93.3247 53.3849 L 92.4362 53.2889 L 92.5314 52.9051 C 92.7908 52.9051 93.5021 52.96 94.0901 52.96 C 94.6094 52.96 95.2928 52.9051 96.1945 52.9051 C 97.5486 52.9051 98.1221 53.1658 98.5328 53.5496 C 98.9974 53.9887 99.2436 54.6606 99.2436 55.4149 C 99.2436 56.2656 98.9837 56.9233 98.5328 57.3899 C 98.0131 57.9109 97.2887 58.1716 96.4686 58.1716 C 96.0724 58.1716 95.6895 58.1167 95.4706 58.0344 L 95.5116 57.6374 C 95.7031 57.678 95.9634 57.7192 96.236 57.7192 C 96.6737 57.7192 97.0972 57.5413 97.3439 57.1841 C 97.6033 56.841 97.7811 56.2514 97.7811 55.4977 C 97.7811 54.7983 97.6306 54.2357 97.3439 53.9068 C 97.002 53.4947 96.5237 53.3442 95.8262 53.3442 C 95.1428 53.3442 95.0608 53.4266 95.0471 53.577 C 95.0197 54.0024 94.9787 54.7018 94.9787 55.7991 L 94.9787 57.5271 L 94.9787 59.2414 C 94.9787 60.0368 95.006 60.4892 95.0197 60.7911 C 95.0471 61.0793 95.1292 61.1341 95.5116 61.1753 L 96.3596 61.2704 L 96.3459 61.6551 C 95.7446 61.6551 94.9381 61.6135 94.2137 61.6135 C 93.5983 61.6135 92.9423 61.6551 92.3683 61.6551 L 92.3961 61.2704 L 92.9838 61.216 C 93.4487 61.1753 93.5573 61.1204 93.5714 60.7088 C 93.6124 60.1187 93.6398 59.1591 93.6398 58.1853 L 93.6398 55.5658 L 93.6384 55.5658 Z" fill="#222222"/>			<path d="M 102.7133 61.8061 C 101.6606 61.8061 100.9914 61.463 100.5537 60.8734 C 100.1708 60.3932 99.9656 59.6115 99.9656 58.8023 C 99.9656 57.1017 100.9362 55.5658 102.8359 55.5658 C 104.8182 55.5658 105.187 57.1429 105.1738 57.9378 C 105.1738 58.2123 105.0922 58.4048 104.8865 58.4872 C 104.6545 58.5823 103.9848 58.6514 103.0958 58.6646 C 102.6176 58.6646 101.8932 58.6783 101.3051 58.6646 C 101.2777 59.4056 101.4696 60.0643 101.7286 60.448 C 102.0294 60.9278 102.4671 61.1753 103.0958 61.1753 C 103.9301 61.1753 104.4352 60.7774 104.8045 59.8447 L 105.1596 60.0364 C 104.7507 61.2709 103.8754 61.8061 102.7133 61.8061 ZM 102.7407 55.977 C 101.7974 55.977 101.3739 57.1292 101.3329 58.2402 C 101.7017 58.2402 102.0705 58.2402 102.4676 58.2402 C 103.1099 58.2402 103.4651 58.199 103.6844 58.1578 C 103.8617 58.1167 103.9575 57.9795 103.9575 57.678 C 103.9575 56.9513 103.6566 55.977 102.7543 55.977 L 102.7407 55.977 Z" fill="#222222"/>			<path d="M 109.3009 55.5658 C 111.119 55.5658 112.2123 56.841 112.2123 58.6377 C 112.2123 60.5441 111.0917 61.8061 109.2047 61.8061 C 107.2088 61.8061 106.2382 60.4892 106.2382 58.7337 C 106.2382 56.9919 107.3319 55.5658 109.2863 55.5658 L 109.3009 55.5658 ZM 109.2052 55.977 C 108.6586 55.977 108.303 56.2377 108.0294 56.6498 C 107.7833 57.061 107.6333 57.7325 107.6333 58.5288 C 107.6333 59.3512 107.7837 60.0922 108.0294 60.5578 C 108.3167 61.1067 108.7675 61.3949 109.3141 61.3949 C 109.8475 61.3949 110.23 61.1621 110.4904 60.6681 C 110.6951 60.2564 110.8318 59.5982 110.8318 58.7612 C 110.8318 57.9246 110.6809 57.1841 110.4493 56.7591 C 110.2031 56.2926 109.8065 55.977 109.2189 55.977 L 109.2052 55.977 Z" fill="#222222"/>			<path d="M 112.7579 64.4261 C 113.6054 64.3711 113.7422 64.3026 113.77 64.0418 C 113.7974 63.6169 113.8521 62.8764 113.8521 61.2709 L 113.8521 58.2402 C 113.8521 57.1703 113.8243 56.6768 113.811 56.4024 C 113.7974 56.1966 113.6469 56.1554 112.8815 56.1966 L 112.9636 55.8265 C 113.6191 55.7853 114.3845 55.7305 115.0132 55.5932 C 115.041 55.9226 115.0547 56.3891 115.0821 56.691 C 115.7523 56.0182 116.4493 55.5663 117.3105 55.5663 C 118.0212 55.5663 118.5537 55.8682 118.9098 56.3205 C 119.2654 56.7866 119.5111 57.5139 119.5111 58.3916 C 119.5111 60.4618 118.4584 61.8065 116.504 61.8065 C 115.9565 61.8065 115.3967 61.6419 115.0547 61.3811 C 115.0547 62.5608 115.041 63.2601 115.0958 63.9595 C 115.1231 64.3026 115.2321 64.3569 116.2031 64.3849 L 116.1343 64.7686 C 115.7654 64.7686 115.2189 64.7407 114.4256 64.7407 C 113.6469 64.7407 113.0867 64.7819 112.6895 64.8098 L 112.7579 64.4261 ZM 116.4625 61.3669 C 117.7472 61.3669 118.1849 60.0368 118.1849 58.5828 C 118.1849 57.9383 118.0344 57.2394 117.7745 56.841 C 117.5421 56.4847 117.2143 56.2656 116.7214 56.2656 C 116.0518 56.2656 115.5325 56.6631 115.2316 57.2115 C 115.1363 57.3629 115.0811 57.5002 115.0811 57.7604 C 115.0674 58.9126 115.0674 59.5159 115.0811 60.2706 C 115.0944 60.4348 115.1359 60.5583 115.2179 60.6818 C 115.491 61.1351 115.9697 61.3674 116.4484 61.3674 L 116.4625 61.3674 L 116.4625 61.3669 Z" fill="#222222"/>			<path d="M 120.2336 52.5072 C 121.1085 52.4939 121.8734 52.4116 122.4205 52.3297 C 122.4069 52.8502 122.3658 53.7696 122.3658 55.0855 L 122.3658 58.5284 C 122.3658 59.954 122.379 60.5573 122.3932 60.8867 C 122.4069 61.1881 122.571 61.243 123.3091 61.2704 L 123.2681 61.6551 C 122.7898 61.6551 122.1611 61.6135 121.6277 61.6135 C 120.999 61.6135 120.5341 61.6551 120.1789 61.6551 L 120.1926 61.2704 C 120.958 61.2572 121.0674 61.1611 121.0811 60.8592 C 121.0948 60.5985 121.1495 59.6522 121.1495 58.473 L 121.1495 55.0439 C 121.1495 53.8922 121.1495 53.4942 121.1221 53.1242 C 121.1085 52.9184 121.0127 52.8772 120.2199 52.8772 L 120.2336 52.5072 Z" fill="#222222"/>			<path d="M 126.8622 61.8061 C 125.8096 61.8061 125.1404 61.463 124.7027 60.8734 C 124.3198 60.3932 124.1146 59.6115 124.1146 58.8023 C 124.1146 57.1017 125.0852 55.5658 126.9849 55.5658 C 128.9671 55.5658 129.3359 57.1429 129.3228 57.9378 C 129.3228 58.2123 129.2407 58.4048 129.0355 58.4872 C 128.8035 58.5823 128.1333 58.6514 127.2448 58.6646 C 126.7661 58.6646 126.0416 58.6783 125.454 58.6646 C 125.4266 59.4056 125.6181 60.0643 125.8775 60.448 C 126.1784 60.9278 126.6161 61.1753 127.2448 61.1753 C 128.079 61.1753 128.5842 60.7774 128.9534 59.8447 L 129.3086 60.0364 C 128.8992 61.2709 128.0244 61.8061 126.8622 61.8061 ZM 126.8896 55.977 C 125.9464 55.977 125.5228 57.1292 125.4818 58.2402 C 125.8506 58.2402 126.2194 58.2402 126.6166 58.2402 C 127.2589 58.2402 127.614 58.199 127.8329 58.1578 C 128.0107 58.1167 128.1064 57.9795 128.1064 57.678 C 128.1064 56.9513 127.8055 55.977 126.9033 55.977 L 126.8896 55.977 Z" fill="#222222"/>		</g>	</g></svg>